<svg xmlns="http://www.w3.org/2000/svg" xmlns:xlink="http://www.w3.org/1999/xlink" width="4000" zoomAndPan="magnify" viewBox="0 0 3000 2999.999989" height="4000" preserveAspectRatio="xMidYMid meet" version="1.0"><path fill="#12945c" d="M 388.050781 2319.089844 C 365.835938 2312.644531 331.339844 2280.160156 314.59375 2249.914062 L 300 2223.574219 L 300 1574.421875 C 300 981.769531 300.75 922.707031 308.253906 895.765625 C 312.789062 879.539062 322.230469 843.027344 329.203125 814.625 C 343.976562 754.59375 358.234375 730.914062 393.640625 707.546875 C 443.453125 674.675781 363.011719 676.925781 1487.65625 676.925781 C 2612.4375 676.925781 2531.707031 674.660156 2581.875 707.589844 C 2595.390625 716.46875 2613.101562 733.671875 2621.210938 745.816406 C 2635.574219 767.304688 2639.21875 779.183594 2665.40625 889.351562 L 2677.917969 941.953125 L 2676.617188 1582.765625 C 2675.316406 2208.367188 2675.128906 2224.046875 2665.65625 2243.25 C 2651.359375 2272.363281 2609.148438 2312.667969 2586.320312 2319.007812 C 2562.195312 2325.707031 411.136719 2325.785156 388.050781 2319.007812 Z M 2465.132812 2210.050781 C 2464.019531 2206.675781 2324.988281 2089.453125 2156.125 1949.558594 C 1987.28125 1809.671875 1845.238281 1690.476562 1840.519531 1684.6875 C 1829.308594 1670.984375 1829.382812 1636.832031 1840.519531 1622.953125 C 1857.1875 1602.367188 1885.3125 1595.554688 1906.613281 1606.949219 C 1916.078125 1612.011719 2532.027344 2119.828125 2559.632812 2145.316406 L 2571.9375 2156.675781 L 2570.632812 1542.28125 C 2569.707031 1138.136719 2567.597656 923.347656 2564.277344 914.636719 L 2559.242188 901.390625 L 2528.71875 931.230469 C 2511.9375 947.640625 2301.714844 1120.570312 2061.59375 1315.515625 C 1821.464844 1510.464844 1609.476562 1683.851562 1590.519531 1700.824219 C 1535.203125 1750.355469 1520.128906 1758.847656 1487.582031 1758.847656 C 1454.816406 1758.847656 1438.90625 1749.773438 1382.734375 1699.117188 C 1363.308594 1681.59375 1151.566406 1508.328125 912.199219 1314.082031 C 672.820312 1119.835938 463.234375 947.515625 446.449219 931.148438 L 415.929688 901.390625 L 410.894531 914.636719 C 407.566406 923.351562 405.390625 1138.074219 404.515625 1542.085938 L 403.214844 2156.285156 L 427.804688 2135.390625 C 484.382812 2087.3125 1032.496094 1634.117188 1052.964844 1618.496094 C 1066.847656 1607.894531 1080.769531 1601.472656 1089.875 1601.472656 C 1108.089844 1601.472656 1131.585938 1613.285156 1138.292969 1625.789062 C 1144.707031 1637.800781 1144.835938 1668.203125 1138.496094 1680.035156 C 1135.839844 1685.015625 993.089844 1805.582031 821.3125 1947.953125 C 649.507812 2090.316406 508.957031 2208.921875 508.957031 2211.503906 C 508.957031 2214.472656 869.128906 2216.199219 1488.007812 2216.199219 C 2269.035156 2216.199219 2466.652344 2214.953125 2465.074219 2210.050781 Z M 1497.996094 1637.765625 C 1511.859375 1621.050781 2487.53125 831.144531 2510.75 817.835938 C 2535.636719 803.558594 2541.300781 793.445312 2527.386719 788.097656 C 2523.089844 786.460938 2054.210938 785.117188 1485.390625 785.117188 C 531.503906 785.117188 450.691406 785.75 444.480469 793.207031 C 438.703125 800.171875 439.070312 802.054688 447.066406 806.734375 C 452.175781 809.71875 466.542969 818.859375 479 827.046875 C 505.132812 844.230469 1467.046875 1625.273438 1477.199219 1637.5625 C 1485.636719 1647.785156 1489.632812 1647.824219 1497.996094 1637.769531 Z M 1497.996094 1637.765625 " fill-opacity="1" fill-rule="nonzero"/></svg>