<svg xmlns="http://www.w3.org/2000/svg" xmlns:xlink="http://www.w3.org/1999/xlink" width="4000" zoomAndPan="magnify" viewBox="0 0 3000 2999.999989" height="4000" preserveAspectRatio="xMidYMid meet" version="1.0"><defs><clipPath id="0ef02212a6"><path d="M 491.25 570 L 2508.75 570 L 2508.75 2587.5 L 491.25 2587.5 Z M 491.25 570 " clip-rule="nonzero"/></clipPath></defs><g clip-path="url(#0ef02212a6)"><path fill="#ff0000" d="M 2508.574219 1578.59375 C 2508.574219 2135.710938 2056.964844 2587.320312 1499.859375 2587.320312 C 942.757812 2587.320312 491.136719 2135.710938 491.136719 1578.59375 C 491.132812 1021.496094 942.757812 569.875 1499.859375 569.875 C 2056.964844 569.875 2508.574219 1021.496094 2508.574219 1578.59375 Z M 2508.574219 1578.59375 " fill-opacity="1" fill-rule="nonzero"/></g><path fill="#ffffff" d="M 1119 1076.160156 L 1901.046875 1076.160156 C 1975.328125 1076.160156 2036.066406 1136.921875 2036.066406 1211.21875 L 2036.066406 1993.257812 C 2036.066406 2067.527344 1975.328125 2128.25 1901.046875 2128.25 L 1119 2128.25 C 1044.707031 2128.25 983.902344 2067.527344 983.902344 1993.257812 L 983.902344 1211.21875 C 983.898438 1136.921875 1044.703125 1076.160156 1119 1076.160156 Z M 1750.394531 1193.003906 C 1724.300781 1193.003906 1703.023438 1214.390625 1703.023438 1240.445312 L 1703.023438 1353.75 C 1703.023438 1379.855469 1724.300781 1401.164062 1750.394531 1401.164062 L 1869.285156 1401.164062 C 1895.324219 1401.164062 1916.671875 1379.855469 1916.671875 1353.75 L 1916.671875 1240.445312 C 1916.671875 1214.390625 1895.328125 1193.003906 1869.285156 1193.003906 Z M 1917.121094 1521.0625 L 1824.535156 1521.0625 C 1833.324219 1549.761719 1838.082031 1579.964844 1838.082031 1611.410156 C 1838.082031 1786.375 1691.59375 1928.261719 1510.980469 1928.261719 C 1330.390625 1928.261719 1183.90625 1786.375 1183.90625 1611.410156 C 1183.90625 1579.964844 1188.714844 1549.765625 1197.460938 1521.0625 L 1100.871094 1521.0625 L 1100.871094 1965.554688 C 1100.871094 1988.578125 1119.664062 2007.277344 1142.660156 2007.277344 L 1875.335938 2007.277344 C 1898.359375 2007.277344 1917.125 1988.578125 1917.125 1965.554688 L 1917.125 1521.0625 Z M 1510.976562 1395.199219 C 1394.320312 1395.199219 1299.703125 1486.824219 1299.703125 1599.972656 C 1299.703125 1713 1394.320312 1804.703125 1510.976562 1804.703125 C 1627.679688 1804.703125 1722.320312 1713 1722.320312 1599.972656 C 1722.324219 1486.824219 1627.679688 1395.199219 1510.976562 1395.199219 Z M 1510.976562 1395.199219 " fill-opacity="1" fill-rule="nonzero"/></svg>