<svg xmlns="http://www.w3.org/2000/svg" xmlns:xlink="http://www.w3.org/1999/xlink" width="4000" zoomAndPan="magnify" viewBox="0 0 3000 2999.999989" height="4000" preserveAspectRatio="xMidYMid meet" version="1.0"><defs><clipPath id="59d88e8fdb"><path d="M 539.277344 922 L 2460.777344 922 L 2460.777344 1620.75 L 539.277344 1620.75 Z M 539.277344 922 " clip-rule="nonzero"/></clipPath></defs><g clip-path="url(#59d88e8fdb)"><path fill="#12945c" d="M 2430.929688 1560.164062 L 1900.550781 1560.164062 L 1900.550781 982.40625 L 2430.925781 982.40625 C 2447.46875 982.40625 2460.871094 968.996094 2460.871094 952.457031 C 2460.871094 935.917969 2447.46875 922.511719 2430.925781 922.511719 L 730.992188 922.511719 C 625.351562 922.511719 539.410156 1008.453125 539.410156 1114.089844 L 539.410156 1428.476562 C 539.410156 1534.117188 625.351562 1620.058594 730.992188 1620.058594 L 2430.929688 1620.058594 C 2447.472656 1620.058594 2460.875 1606.652344 2460.875 1590.113281 C 2460.875 1573.574219 2447.46875 1560.164062 2430.929688 1560.164062 Z M 599.304688 1428.476562 L 599.304688 1114.089844 C 599.304688 1041.480469 658.382812 982.40625 730.992188 982.40625 L 1840.65625 982.40625 L 1840.65625 1560.164062 L 730.992188 1560.164062 C 658.382812 1560.164062 599.304688 1501.089844 599.304688 1428.476562 Z M 599.304688 1428.476562 " fill-opacity="1" fill-rule="nonzero"/></g><path fill="#12945c" d="M 864.039062 1193.652344 C 861.71875 1185.40625 857.554688 1177.882812 851.660156 1171.296875 C 845.800781 1164.742188 837.847656 1159.328125 828.023438 1155.195312 C 818.324219 1151.117188 806.070312 1149.054688 791.605469 1149.054688 L 718.28125 1149.054688 C 713.386719 1149.054688 709.414062 1153.023438 709.414062 1157.921875 L 709.414062 1366.410156 C 709.414062 1371.304688 713.382812 1375.277344 718.28125 1375.277344 L 746.550781 1375.277344 C 751.449219 1375.277344 755.417969 1371.308594 755.417969 1366.410156 L 755.417969 1283.402344 L 791.601562 1283.402344 C 806.082031 1283.402344 818.332031 1281.335938 828.023438 1277.261719 C 837.835938 1273.136719 845.789062 1267.71875 851.660156 1261.164062 C 857.554688 1254.574219 861.71875 1247.050781 864.035156 1238.804688 C 866.210938 1231.074219 867.316406 1223.480469 867.316406 1216.230469 C 867.320312 1208.984375 866.214844 1201.390625 864.039062 1193.652344 Z M 816.914062 1229.019531 C 815.15625 1232.058594 812.929688 1234.296875 810.101562 1235.875 C 806.808594 1237.714844 802.921875 1239.011719 798.574219 1239.722656 C 793.664062 1240.527344 788.648438 1240.929688 783.660156 1240.929688 L 755.421875 1240.929688 L 755.421875 1191.523438 L 783.660156 1191.523438 C 788.648438 1191.523438 793.664062 1191.933594 798.570312 1192.730469 C 802.925781 1193.445312 806.808594 1194.738281 810.109375 1196.582031 C 812.933594 1198.160156 815.15625 1200.402344 816.910156 1203.429688 C 818.664062 1206.464844 819.546875 1210.765625 819.546875 1216.222656 C 819.546875 1221.679688 818.664062 1225.984375 816.914062 1229.019531 Z M 816.914062 1229.019531 " fill-opacity="1" fill-rule="nonzero"/><path fill="#12945c" d="M 978.484375 1216.648438 C 969.726562 1213.730469 958.796875 1213.648438 948.425781 1216.707031 C 943.417969 1218.191406 938.726562 1220.21875 934.480469 1222.746094 C 933.035156 1223.605469 931.625 1224.53125 930.265625 1225.515625 C 929.632812 1221.246094 925.945312 1217.964844 921.496094 1217.964844 L 894.992188 1217.964844 C 890.097656 1217.964844 886.128906 1221.933594 886.128906 1226.835938 L 886.128906 1366.414062 C 886.128906 1371.308594 890.097656 1375.28125 894.992188 1375.28125 L 921.496094 1375.28125 C 926.394531 1375.28125 930.363281 1371.3125 930.363281 1366.414062 L 930.363281 1296.324219 C 930.363281 1283.421875 933.019531 1274.078125 938.246094 1268.554688 C 943.417969 1263.085938 951.039062 1260.433594 961.539062 1260.433594 C 963.144531 1260.433594 964.792969 1260.582031 966.417969 1260.875 C 968.332031 1261.226562 970.253906 1261.65625 972.164062 1262.179688 C 974.777344 1262.890625 977.554688 1262.375 979.734375 1260.777344 C 981.914062 1259.1875 983.246094 1256.6875 983.355469 1253.992188 L 984.53125 1225.429688 C 984.699219 1221.480469 982.226562 1217.898438 978.484375 1216.648438 Z M 978.484375 1216.648438 " fill-opacity="1" fill-rule="nonzero"/><path fill="#12945c" d="M 1133.929688 1238.523438 C 1126.472656 1231.066406 1117.601562 1225.128906 1107.566406 1220.878906 C 1097.480469 1216.601562 1086.507812 1214.429688 1074.953125 1214.429688 C 1063.394531 1214.429688 1052.417969 1216.597656 1042.339844 1220.878906 C 1032.300781 1225.128906 1023.429688 1231.066406 1015.972656 1238.523438 C 1008.53125 1245.964844 1002.605469 1254.714844 998.351562 1264.53125 C 994.054688 1274.445312 991.878906 1285.242188 991.878906 1296.621094 C 991.878906 1307.988281 994.050781 1318.824219 998.335938 1328.824219 C 1002.605469 1338.777344 1008.554688 1347.558594 1016.015625 1354.90625 C 1023.445312 1362.238281 1032.304688 1368.109375 1042.339844 1372.363281 C 1052.421875 1376.640625 1063.398438 1378.808594 1074.953125 1378.808594 C 1086.5 1378.808594 1097.476562 1376.640625 1107.570312 1372.363281 C 1117.59375 1368.109375 1126.453125 1362.234375 1133.882812 1354.910156 C 1141.355469 1347.546875 1147.304688 1338.769531 1151.5625 1328.824219 C 1155.847656 1318.824219 1158.023438 1307.992188 1158.023438 1296.621094 C 1158.023438 1285.242188 1155.847656 1274.445312 1151.550781 1264.53125 C 1147.304688 1254.722656 1141.378906 1245.972656 1133.929688 1238.523438 Z M 1109.3125 1313.1875 C 1107.566406 1318.027344 1105.113281 1322.160156 1102.027344 1325.476562 C 1098.925781 1328.820312 1095.183594 1331.402344 1090.582031 1333.382812 C 1086.035156 1335.34375 1080.773438 1336.34375 1074.953125 1336.34375 C 1069.128906 1336.34375 1063.871094 1335.347656 1059.316406 1333.378906 C 1054.722656 1331.402344 1050.984375 1328.820312 1047.871094 1325.46875 C 1044.785156 1322.160156 1042.335938 1318.027344 1040.589844 1313.191406 C 1038.792969 1308.207031 1037.878906 1302.632812 1037.878906 1296.621094 C 1037.878906 1290.617188 1038.792969 1285.035156 1040.589844 1280.050781 C 1042.335938 1275.214844 1044.785156 1271.082031 1047.878906 1267.761719 C 1050.976562 1264.425781 1054.722656 1261.839844 1059.324219 1259.855469 C 1063.878906 1257.894531 1069.132812 1256.902344 1074.953125 1256.902344 C 1080.769531 1256.902344 1086.027344 1257.894531 1090.578125 1259.851562 C 1095.175781 1261.839844 1098.921875 1264.429688 1102.027344 1267.761719 C 1105.113281 1271.082031 1107.566406 1275.21875 1109.308594 1280.042969 C 1111.109375 1285.046875 1112.023438 1290.628906 1112.023438 1296.621094 C 1112.019531 1302.621094 1111.109375 1308.199219 1109.3125 1313.1875 Z M 1109.3125 1313.1875 " fill-opacity="1" fill-rule="nonzero"/><path fill="#12945c" d="M 1399.167969 1237.609375 C 1394.410156 1230.601562 1387.863281 1224.914062 1379.691406 1220.714844 C 1371.582031 1216.542969 1361.300781 1214.433594 1349.132812 1214.433594 C 1339.285156 1214.433594 1329.480469 1216.953125 1319.988281 1221.921875 C 1314.304688 1224.898438 1309.335938 1228.757812 1305.125 1233.460938 C 1301.328125 1228.90625 1297.011719 1225.144531 1292.214844 1222.210938 C 1283.761719 1217.046875 1273.390625 1214.433594 1261.382812 1214.433594 C 1254.109375 1214.433594 1247.308594 1215.550781 1241.167969 1217.75 C 1235.253906 1219.871094 1230.007812 1222.503906 1225.5625 1225.578125 C 1225.328125 1225.742188 1225.101562 1225.898438 1224.863281 1226.0625 C 1224.480469 1221.523438 1220.667969 1217.960938 1216.03125 1217.960938 L 1191.296875 1217.960938 C 1186.402344 1217.960938 1182.433594 1221.929688 1182.433594 1226.832031 L 1182.433594 1366.410156 C 1182.433594 1371.304688 1186.402344 1375.277344 1191.296875 1375.277344 L 1217.800781 1375.277344 C 1222.695312 1375.277344 1226.667969 1371.308594 1226.667969 1366.410156 L 1226.667969 1293.96875 C 1226.667969 1287.125 1227.503906 1281.195312 1229.148438 1276.339844 C 1230.710938 1271.71875 1232.78125 1267.949219 1235.308594 1265.128906 C 1237.777344 1262.363281 1240.550781 1260.359375 1243.777344 1258.996094 C 1247.125 1257.582031 1250.476562 1256.894531 1254.019531 1256.894531 C 1258.792969 1256.894531 1262.585938 1257.640625 1264.972656 1259.046875 C 1267.34375 1260.449219 1269.132812 1262.355469 1270.425781 1264.871094 C 1271.996094 1267.945312 1273.078125 1271.765625 1273.640625 1276.210938 C 1274.273438 1281.34375 1274.601562 1287.117188 1274.601562 1293.371094 L 1274.601562 1366.398438 C 1274.601562 1371.292969 1278.570312 1375.265625 1283.464844 1375.265625 L 1309.96875 1375.265625 C 1314.863281 1375.265625 1318.832031 1371.296875 1318.832031 1366.398438 L 1318.832031 1290.132812 C 1318.832031 1279.679688 1321.066406 1271.183594 1325.480469 1264.882812 C 1329.242188 1259.503906 1335.820312 1256.890625 1345.597656 1256.890625 C 1350.394531 1256.890625 1354.273438 1257.652344 1356.78125 1259.089844 C 1359.355469 1260.574219 1361.277344 1262.453125 1362.660156 1264.832031 C 1364.226562 1267.542969 1365.289062 1270.824219 1365.820312 1274.566406 C 1366.449219 1279.070312 1366.765625 1283.8125 1366.765625 1288.660156 L 1366.765625 1366.398438 C 1366.765625 1371.292969 1370.734375 1375.265625 1375.632812 1375.265625 L 1402.132812 1375.265625 C 1407.03125 1375.265625 1411.003906 1371.296875 1411.003906 1366.398438 L 1411.003906 1285.125 C 1411.003906 1276.726562 1410.199219 1268.460938 1408.621094 1260.5625 C 1406.925781 1252.089844 1403.746094 1244.359375 1399.167969 1237.609375 Z M 1399.167969 1237.609375 " fill-opacity="1" fill-rule="nonzero"/><path fill="#12945c" d="M 1584.914062 1238.46875 C 1577.90625 1230.910156 1569.355469 1224.945312 1559.507812 1220.738281 C 1549.695312 1216.550781 1538.667969 1214.429688 1526.726562 1214.429688 C 1516.050781 1214.429688 1505.539062 1216.785156 1495.484375 1221.429688 C 1492.257812 1222.914062 1489.230469 1224.605469 1486.414062 1226.496094 C 1486.234375 1221.753906 1482.339844 1217.960938 1477.550781 1217.960938 L 1451.050781 1217.960938 C 1446.152344 1217.960938 1442.183594 1221.929688 1442.183594 1226.832031 L 1442.183594 1449.449219 C 1442.183594 1454.34375 1446.152344 1458.316406 1451.050781 1458.316406 L 1477.550781 1458.316406 C 1482.445312 1458.316406 1486.417969 1454.347656 1486.417969 1449.449219 L 1486.417969 1366.957031 C 1488.972656 1368.664062 1491.71875 1370.214844 1494.640625 1371.613281 C 1504.636719 1376.390625 1515.4375 1378.808594 1526.726562 1378.808594 C 1538.667969 1378.808594 1549.691406 1376.6875 1559.507812 1372.503906 C 1569.332031 1368.3125 1577.867188 1362.410156 1584.871094 1354.960938 C 1591.832031 1347.558594 1597.257812 1338.734375 1600.996094 1328.726562 C 1604.691406 1318.835938 1606.570312 1308.035156 1606.570312 1296.621094 C 1606.570312 1285.402344 1604.695312 1274.699219 1600.996094 1264.804688 C 1597.265625 1254.824219 1591.855469 1245.96875 1584.914062 1238.46875 Z M 1557.851562 1313.1875 C 1556.101562 1318.023438 1553.648438 1322.160156 1550.570312 1325.472656 C 1547.457031 1328.820312 1543.710938 1331.402344 1539.117188 1333.382812 C 1534.566406 1335.34375 1529.308594 1336.34375 1523.488281 1336.34375 C 1517.664062 1336.34375 1512.40625 1335.347656 1507.847656 1333.378906 C 1503.261719 1331.40625 1499.519531 1328.820312 1496.402344 1325.46875 C 1493.320312 1322.160156 1490.867188 1318.03125 1489.125 1313.1875 C 1487.324219 1308.207031 1486.410156 1302.632812 1486.410156 1296.621094 C 1486.410156 1290.609375 1487.324219 1285.035156 1489.128906 1280.042969 C 1490.871094 1275.214844 1493.320312 1271.082031 1496.40625 1267.765625 C 1499.519531 1264.425781 1503.265625 1261.835938 1507.859375 1259.851562 C 1512.402344 1257.890625 1517.664062 1256.898438 1523.484375 1256.898438 C 1529.300781 1256.898438 1534.558594 1257.890625 1539.109375 1259.847656 C 1543.707031 1261.832031 1547.453125 1264.425781 1550.558594 1267.753906 C 1553.644531 1271.078125 1556.097656 1275.214844 1557.84375 1280.039062 C 1559.644531 1285.039062 1560.558594 1290.625 1560.558594 1296.617188 C 1560.5625 1302.621094 1559.648438 1308.199219 1557.851562 1313.1875 Z M 1557.851562 1313.1875 " fill-opacity="1" fill-rule="nonzero"/><path fill="#12945c" d="M 1719.96875 1333.417969 C 1717.230469 1331.828125 1713.863281 1331.820312 1711.121094 1333.386719 C 1709.25 1334.457031 1707.195312 1335.179688 1704.847656 1335.59375 C 1702.035156 1336.089844 1699.285156 1336.34375 1696.675781 1336.34375 C 1692.171875 1336.34375 1690.539062 1335.4375 1690.144531 1335.160156 C 1688.855469 1334.253906 1687.964844 1333.132812 1687.328125 1331.621094 C 1686.457031 1329.542969 1685.941406 1327.078125 1685.796875 1324.285156 C 1685.609375 1320.683594 1685.515625 1316.921875 1685.515625 1313.113281 L 1685.515625 1258.667969 L 1714.636719 1258.667969 C 1719.53125 1258.667969 1723.503906 1254.699219 1723.503906 1249.796875 L 1723.503906 1226.832031 C 1723.503906 1221.933594 1719.535156 1217.960938 1714.636719 1217.960938 L 1685.515625 1217.960938 L 1685.515625 1187.664062 C 1685.515625 1182.769531 1681.546875 1178.792969 1676.652344 1178.792969 L 1650.148438 1178.792969 C 1645.253906 1178.792969 1641.285156 1182.765625 1641.285156 1187.664062 L 1641.285156 1217.960938 L 1619.527344 1217.960938 C 1614.628906 1217.960938 1610.65625 1221.929688 1610.65625 1226.832031 L 1610.65625 1249.796875 C 1610.65625 1254.695312 1614.625 1258.667969 1619.527344 1258.667969 L 1641.285156 1258.667969 L 1641.285156 1322.535156 C 1641.285156 1328.492188 1641.542969 1334.453125 1642.054688 1340.234375 C 1642.644531 1347.117188 1644.632812 1353.472656 1647.949219 1359.121094 C 1651.457031 1365.101562 1656.839844 1369.96875 1663.949219 1373.582031 C 1670.878906 1377.101562 1679.945312 1378.8125 1691.671875 1378.8125 C 1694.847656 1378.8125 1699.042969 1378.449219 1704.515625 1377.699219 C 1710.691406 1376.84375 1715.714844 1375.300781 1719.867188 1372.964844 C 1722.660156 1371.394531 1724.390625 1368.433594 1724.390625 1365.234375 L 1724.390625 1341.085938 C 1724.386719 1337.925781 1722.703125 1335 1719.96875 1333.417969 Z M 1719.96875 1333.417969 " fill-opacity="1" fill-rule="nonzero"/><path fill="#12945c" d="M 2018.359375 1379.285156 C 2001.816406 1379.285156 1988.414062 1392.691406 1988.414062 1409.230469 C 1988.414062 1425.769531 2001.816406 1439.179688 2018.359375 1439.179688 L 2232.632812 1439.179688 C 2249.175781 1439.179688 2262.582031 1425.769531 2262.582031 1409.230469 C 2262.582031 1392.691406 2249.175781 1379.285156 2232.632812 1379.285156 Z M 2018.359375 1379.285156 " fill-opacity="1" fill-rule="nonzero"/></svg>