<svg xmlns="http://www.w3.org/2000/svg" xmlns:xlink="http://www.w3.org/1999/xlink" width="4000" zoomAndPan="magnify" viewBox="0 0 3000 2999.999989" height="4000" preserveAspectRatio="xMidYMid meet" version="1.0"><path fill="#1ba553" d="M 1442.632812 391.933594 C 854.335938 393.914062 384.148438 872.242188 391.832031 1460.476562 C 392.007812 1475.246094 392.492188 1490.007812 393.289062 1504.757812 C 394.085938 1519.507812 395.195312 1534.234375 396.613281 1548.9375 C 398.03125 1563.640625 399.757812 1578.304688 401.796875 1592.933594 C 403.832031 1607.566406 406.179688 1622.144531 408.832031 1636.675781 C 411.484375 1651.207031 414.445312 1665.675781 417.707031 1680.082031 C 420.972656 1694.488281 424.535156 1708.820312 428.40625 1723.078125 C 432.273438 1737.332031 436.441406 1751.5 440.90625 1765.582031 C 445.375 1779.660156 450.136719 1793.640625 455.191406 1807.519531 C 460.25 1821.398438 465.59375 1835.164062 471.234375 1848.816406 C 476.871094 1862.46875 482.792969 1876 489.003906 1889.402344 C 495.210938 1902.804688 501.699219 1916.070312 508.46875 1929.199219 C 515.234375 1942.332031 522.277344 1955.3125 529.59375 1968.144531 C 536.910156 1980.976562 544.496094 1993.648438 552.34375 2006.160156 C 560.195312 2018.671875 568.308594 2031.011719 576.679688 2043.183594 C 585.050781 2055.351562 593.675781 2067.339844 602.554688 2079.144531 C 611.433594 2090.953125 620.554688 2102.566406 629.925781 2113.988281 C 631.394531 2115.789062 632.796875 2117.640625 634.128906 2119.546875 C 635.460938 2121.453125 636.71875 2123.40625 637.90625 2125.40625 C 639.089844 2127.40625 640.199219 2129.449219 641.234375 2131.53125 C 642.269531 2133.613281 643.222656 2135.734375 644.097656 2137.886719 C 644.972656 2140.042969 645.765625 2142.226562 646.480469 2144.441406 C 647.191406 2146.652344 647.820312 2148.890625 648.363281 2151.152344 C 648.910156 2153.410156 649.371094 2155.6875 649.746094 2157.984375 C 650.121094 2160.277344 650.40625 2162.585938 650.609375 2164.902344 C 650.8125 2167.21875 650.929688 2169.539062 650.957031 2171.863281 C 650.988281 2174.1875 650.929688 2176.511719 650.785156 2178.832031 C 650.640625 2181.152344 650.410156 2183.464844 650.09375 2185.769531 C 649.777344 2188.074219 649.375 2190.359375 648.886719 2192.636719 C 648.398438 2194.910156 647.828125 2197.160156 647.171875 2199.390625 C 646.515625 2201.621094 645.777344 2203.824219 644.953125 2206 C 644.132812 2208.175781 643.234375 2210.320312 642.253906 2212.425781 C 641.269531 2214.535156 640.214844 2216.605469 639.078125 2218.632812 L 548.242188 2381.410156 C 523.054688 2426.539062 564.089844 2479.898438 614.175781 2467.148438 L 921.84375 2388.816406 C 927.164062 2387.464844 932.566406 2386.585938 938.042969 2386.183594 C 943.523438 2385.785156 948.992188 2385.863281 954.457031 2386.421875 C 959.921875 2386.984375 965.292969 2388.015625 970.578125 2389.523438 C 975.859375 2391.027344 980.96875 2392.984375 985.90625 2395.386719 C 1002.855469 2403.621094 1020.011719 2411.390625 1037.375 2418.699219 C 1054.738281 2426.007812 1072.289062 2432.84375 1090.023438 2439.207031 C 1107.757812 2445.570312 1125.648438 2451.453125 1143.699219 2456.851562 C 1161.746094 2462.253906 1179.929688 2467.164062 1198.246094 2471.582031 C 1216.558594 2476.003906 1234.980469 2479.929688 1253.503906 2483.355469 C 1272.03125 2486.785156 1290.636719 2489.714844 1309.320312 2492.140625 C 1328.003906 2494.566406 1346.738281 2496.488281 1365.523438 2497.90625 C 1384.3125 2499.324219 1403.125 2500.234375 1421.960938 2500.640625 C 2013.4375 2514.011719 2498.929688 2041.398438 2500.777344 1449.785156 C 2502.605469 864.652344 2027.816406 389.964844 1442.632812 391.933594 Z M 1446.261719 2370.976562 C 1431.132812 2370.976562 1416.007812 2370.605469 1400.894531 2369.863281 C 1385.78125 2369.121094 1370.695312 2368.007812 1355.636719 2366.527344 C 1340.578125 2365.042969 1325.566406 2363.191406 1310.597656 2360.972656 C 1295.632812 2358.753906 1280.726562 2356.167969 1265.886719 2353.214844 C 1251.046875 2350.261719 1236.285156 2346.949219 1221.609375 2343.273438 C 1206.929688 2339.597656 1192.351562 2335.5625 1177.871094 2331.171875 C 1163.390625 2326.777344 1149.027344 2322.035156 1134.78125 2316.9375 C 1120.535156 2311.839844 1106.421875 2306.394531 1092.441406 2300.605469 C 1078.460938 2294.8125 1064.632812 2288.683594 1050.953125 2282.214844 C 1037.277344 2275.746094 1023.765625 2268.945312 1010.417969 2261.8125 C 997.074219 2254.679688 983.914062 2247.222656 970.933594 2239.445312 C 957.957031 2231.667969 945.175781 2223.574219 932.59375 2215.167969 C 920.011719 2206.761719 907.644531 2198.050781 895.492188 2189.039062 C 883.335938 2180.023438 871.414062 2170.71875 859.714844 2161.121094 C 848.019531 2151.519531 836.5625 2141.640625 825.351562 2131.480469 C 814.140625 2121.316406 803.183594 2110.886719 792.484375 2100.1875 C 781.785156 2089.488281 771.355469 2078.53125 761.195312 2067.320312 C 751.03125 2056.109375 741.152344 2044.65625 731.550781 2032.960938 C 721.953125 2021.261719 712.644531 2009.339844 703.632812 1997.183594 C 694.617188 1985.03125 685.910156 1972.664062 677.5 1960.082031 C 669.09375 1947.5 661.003906 1934.722656 653.222656 1921.742188 C 645.445312 1908.765625 637.988281 1895.605469 630.855469 1882.257812 C 623.722656 1868.914062 616.921875 1855.402344 610.449219 1841.726562 C 603.980469 1828.046875 597.851562 1814.21875 592.0625 1800.238281 C 586.269531 1786.257812 580.824219 1772.144531 575.726562 1757.898438 C 570.628906 1743.652344 565.886719 1729.289062 561.492188 1714.808594 C 557.101562 1700.328125 553.066406 1685.75 549.390625 1671.074219 C 545.710938 1656.394531 542.398438 1641.636719 539.445312 1626.796875 C 536.496094 1611.957031 533.90625 1597.050781 531.6875 1582.082031 C 529.46875 1567.117188 527.617188 1552.105469 526.132812 1537.046875 C 524.648438 1521.988281 523.535156 1506.902344 522.792969 1491.789062 C 522.050781 1476.675781 521.679688 1461.554688 521.679688 1446.421875 C 521.679688 935.8125 935.640625 521.867188 1446.265625 521.867188 C 1954.914062 521.867188 2367.625 932.601562 2370.824219 1440.476562 C 2374.039062 1950.074219 1955.890625 2370.976562 1446.261719 2370.976562 Z M 1446.261719 2370.976562 " fill-opacity="1" fill-rule="nonzero"/><path fill="#1ba553" d="M 1281.015625 996.929688 L 1281.441406 997.78125 L 1336.585938 1107.144531 C 1338.066406 1110.078125 1339.425781 1113.070312 1340.667969 1116.117188 C 1341.90625 1119.164062 1343.019531 1122.253906 1344.011719 1125.386719 C 1345 1128.523438 1345.863281 1131.695312 1346.597656 1134.898438 C 1347.335938 1138.105469 1347.9375 1141.332031 1348.414062 1144.585938 C 1348.890625 1147.839844 1349.230469 1151.109375 1349.445312 1154.390625 C 1349.65625 1157.671875 1349.734375 1160.957031 1349.683594 1164.242188 C 1349.628906 1167.53125 1349.445312 1170.8125 1349.128906 1174.085938 C 1348.808594 1177.359375 1348.363281 1180.613281 1347.78125 1183.847656 C 1347.203125 1187.085938 1346.496094 1190.292969 1345.65625 1193.472656 C 1344.820312 1196.652344 1343.855469 1199.792969 1342.765625 1202.898438 C 1341.675781 1206 1340.460938 1209.050781 1339.125 1212.054688 C 1337.789062 1215.0625 1336.332031 1218.007812 1334.757812 1220.894531 C 1333.183594 1223.78125 1331.496094 1226.597656 1329.695312 1229.351562 C 1327.894531 1232.101562 1325.984375 1234.777344 1323.96875 1237.375 C 1321.953125 1239.972656 1319.835938 1242.484375 1317.617188 1244.910156 C 1315.398438 1247.335938 1313.085938 1249.671875 1310.679688 1251.910156 C 1308.28125 1254.136719 1305.980469 1256.449219 1303.769531 1258.859375 C 1301.558594 1261.269531 1299.449219 1263.761719 1297.4375 1266.339844 C 1295.425781 1268.917969 1293.523438 1271.570312 1291.726562 1274.300781 C 1289.929688 1277.03125 1288.242188 1279.828125 1286.671875 1282.695312 C 1285.097656 1285.5625 1283.640625 1288.484375 1282.304688 1291.46875 C 1280.964844 1294.449219 1279.75 1297.480469 1278.652344 1300.5625 C 1277.558594 1303.640625 1276.589844 1306.761719 1275.742188 1309.917969 C 1274.898438 1313.078125 1274.183594 1316.265625 1273.59375 1319.480469 C 1273.003906 1322.695312 1272.546875 1325.929688 1272.214844 1329.179688 C 1271.886719 1332.433594 1271.6875 1335.695312 1271.621094 1338.960938 C 1271.550781 1342.230469 1271.613281 1345.496094 1271.808594 1348.757812 C 1272.003906 1352.023438 1272.328125 1355.273438 1272.78125 1358.511719 C 1273.238281 1361.746094 1273.820312 1364.960938 1274.535156 1368.152344 C 1275.246094 1371.34375 1276.085938 1374.5 1277.050781 1377.621094 C 1278.019531 1380.746094 1279.109375 1383.824219 1280.320312 1386.859375 C 1281.535156 1389.894531 1282.867188 1392.878906 1284.320312 1395.804688 C 1317.421875 1462.277344 1374.777344 1553.902344 1462.296875 1620.011719 C 1464.734375 1621.863281 1467.234375 1623.617188 1469.800781 1625.28125 C 1472.367188 1626.941406 1474.992188 1628.503906 1477.675781 1629.972656 C 1480.359375 1631.4375 1483.09375 1632.800781 1485.878906 1634.0625 C 1488.664062 1635.324219 1491.492188 1636.480469 1494.363281 1637.53125 C 1497.234375 1638.582031 1500.140625 1639.527344 1503.082031 1640.359375 C 1506.023438 1641.195312 1508.992188 1641.917969 1511.988281 1642.527344 C 1514.984375 1643.140625 1518 1643.640625 1521.03125 1644.027344 C 1524.0625 1644.414062 1527.109375 1644.6875 1530.160156 1644.847656 C 1533.214844 1645.007812 1536.269531 1645.050781 1539.328125 1644.984375 C 1542.382812 1644.914062 1545.433594 1644.730469 1548.476562 1644.4375 C 1551.519531 1644.140625 1554.546875 1643.730469 1557.5625 1643.207031 C 1560.574219 1642.6875 1563.5625 1642.050781 1566.527344 1641.304688 C 1569.492188 1640.5625 1572.425781 1639.707031 1575.328125 1638.742188 C 1578.230469 1637.777344 1581.089844 1636.703125 1583.914062 1635.527344 C 1586.734375 1634.347656 1589.507812 1633.066406 1592.234375 1631.679688 C 1594.957031 1630.296875 1597.628906 1628.808594 1600.242188 1627.226562 L 1635.753906 1605.617188 C 1639.726562 1603.199219 1643.820312 1601.019531 1648.035156 1599.070312 C 1652.253906 1597.121094 1656.570312 1595.414062 1660.980469 1593.957031 C 1665.390625 1592.5 1669.871094 1591.292969 1674.421875 1590.347656 C 1678.96875 1589.398438 1683.558594 1588.710938 1688.183594 1588.285156 C 1692.808594 1587.859375 1697.445312 1587.695312 1702.089844 1587.796875 C 1706.738281 1587.898438 1711.363281 1588.261719 1715.964844 1588.890625 C 1720.570312 1589.515625 1725.121094 1590.402344 1729.625 1591.550781 C 1734.128906 1592.695312 1738.550781 1594.09375 1742.894531 1595.742188 L 1884.054688 1649.414062 C 1885.925781 1650.125 1887.78125 1650.882812 1889.617188 1651.6875 C 1891.453125 1652.488281 1893.269531 1653.335938 1895.0625 1654.230469 C 1896.859375 1655.121094 1898.628906 1656.058594 1900.378906 1657.039062 C 1902.125 1658.015625 1903.851562 1659.039062 1905.550781 1660.101562 C 1907.246094 1661.167969 1908.917969 1662.273438 1910.5625 1663.417969 C 1912.207031 1664.5625 1913.824219 1665.75 1915.410156 1666.976562 C 1916.996094 1668.199219 1918.550781 1669.464844 1920.074219 1670.765625 C 1921.597656 1672.066406 1923.089844 1673.40625 1924.546875 1674.78125 C 1926.003906 1676.15625 1927.429688 1677.566406 1928.816406 1679.011719 C 1930.207031 1680.457031 1931.558594 1681.933594 1932.875 1683.445312 C 1934.191406 1684.957031 1935.46875 1686.5 1936.710938 1688.074219 C 1937.953125 1689.644531 1939.152344 1691.25 1940.316406 1692.882812 C 1941.476562 1694.515625 1942.597656 1696.175781 1943.679688 1697.863281 C 1944.757812 1699.550781 1945.796875 1701.265625 1946.792969 1703.003906 C 1947.789062 1704.742188 1948.742188 1706.507812 1949.652344 1708.292969 C 1950.5625 1710.078125 1951.429688 1711.886719 1952.25 1713.714844 C 1953.070312 1715.542969 1953.847656 1717.390625 1954.574219 1719.253906 C 1955.304688 1721.121094 1955.992188 1723.003906 1956.628906 1724.90625 C 1957.265625 1726.804688 1957.859375 1728.71875 1958.402344 1730.648438 C 1958.945312 1732.578125 1959.441406 1734.519531 1959.890625 1736.472656 C 1960.339844 1738.425781 1960.738281 1740.386719 1961.089844 1742.359375 C 1961.445312 1744.335938 1961.746094 1746.316406 1962.003906 1748.300781 C 1962.257812 1750.289062 1962.464844 1752.285156 1962.621094 1754.28125 C 1962.777344 1756.28125 1962.886719 1758.28125 1962.945312 1760.285156 C 1963.003906 1762.285156 1963.011719 1764.289062 1962.972656 1766.292969 C 1962.933594 1768.296875 1962.84375 1770.300781 1962.707031 1772.300781 C 1962.570312 1774.296875 1962.382812 1776.292969 1962.148438 1778.285156 C 1961.910156 1780.273438 1961.628906 1782.257812 1961.292969 1784.234375 C 1960.960938 1786.210938 1960.578125 1788.175781 1960.148438 1790.132812 C 1959.71875 1792.09375 1959.242188 1794.039062 1958.71875 1795.972656 C 1958.191406 1797.90625 1957.621094 1799.824219 1957 1801.730469 C 1956.378906 1803.636719 1955.714844 1805.527344 1955.003906 1807.402344 C 1953.355469 1811.710938 1951.472656 1815.917969 1949.359375 1820.023438 L 1910.246094 1895.835938 C 1908.664062 1898.898438 1906.957031 1901.886719 1905.125 1904.800781 C 1903.292969 1907.71875 1901.339844 1910.554688 1899.269531 1913.304688 C 1897.195312 1916.054688 1895.011719 1918.714844 1892.71875 1921.285156 C 1890.421875 1923.851562 1888.023438 1926.316406 1885.519531 1928.683594 C 1883.015625 1931.046875 1880.414062 1933.304688 1877.71875 1935.449219 C 1875.027344 1937.597656 1872.246094 1939.625 1869.382812 1941.535156 C 1866.515625 1943.449219 1863.574219 1945.234375 1860.558594 1946.898438 C 1857.542969 1948.5625 1854.464844 1950.097656 1851.316406 1951.5 C 1848.171875 1952.90625 1844.972656 1954.175781 1841.722656 1955.308594 C 1838.46875 1956.441406 1835.175781 1957.4375 1831.839844 1958.292969 C 1828.503906 1959.152344 1825.136719 1959.867188 1821.738281 1960.4375 C 1818.34375 1961.011719 1814.929688 1961.441406 1811.496094 1961.722656 C 1808.0625 1962.007812 1804.625 1962.148438 1801.179688 1962.144531 C 1797.734375 1962.136719 1794.296875 1961.988281 1790.867188 1961.695312 C 1787.433594 1961.398438 1784.019531 1960.960938 1780.625 1960.375 C 1777.230469 1959.792969 1773.867188 1959.070312 1770.535156 1958.203125 C 1548.835938 1900.847656 1020.46875 1701.480469 977.898438 1098.605469 C 977.6875 1095.636719 977.585938 1092.660156 977.59375 1089.683594 C 977.601562 1086.703125 977.714844 1083.730469 977.9375 1080.757812 C 978.164062 1077.789062 978.492188 1074.828125 978.933594 1071.882812 C 979.371094 1068.9375 979.917969 1066.011719 980.570312 1063.105469 C 981.222656 1060.199219 981.980469 1057.320312 982.84375 1054.46875 C 983.707031 1051.617188 984.671875 1048.800781 985.742188 1046.019531 C 986.808594 1043.238281 987.976562 1040.5 989.246094 1037.804688 C 990.511719 1035.109375 991.875 1032.464844 993.335938 1029.867188 C 994.796875 1027.273438 996.351562 1024.734375 997.996094 1022.25 C 999.644531 1019.765625 1001.378906 1017.347656 1003.199219 1014.992188 C 1005.023438 1012.636719 1006.929688 1010.347656 1008.917969 1008.132812 C 1010.90625 1005.914062 1012.976562 1003.773438 1015.121094 1001.707031 C 1017.265625 999.640625 1019.484375 997.652344 1021.773438 995.75 C 1024.066406 993.84375 1026.421875 992.027344 1028.84375 990.292969 C 1031.269531 988.558594 1033.75 986.917969 1036.292969 985.367188 C 1038.835938 983.816406 1041.433594 982.359375 1044.082031 980.996094 L 1116.078125 944.011719 C 1117.859375 943.09375 1119.664062 942.222656 1121.488281 941.394531 C 1123.316406 940.566406 1125.160156 939.785156 1127.023438 939.046875 C 1128.886719 938.308594 1130.769531 937.617188 1132.667969 936.972656 C 1134.566406 936.328125 1136.476562 935.730469 1138.40625 935.179688 C 1140.332031 934.625 1142.273438 934.121094 1144.222656 933.667969 C 1146.175781 933.210938 1148.136719 932.804688 1150.109375 932.441406 C 1152.082031 932.082031 1154.0625 931.773438 1156.046875 931.511719 C 1158.035156 931.246094 1160.027344 931.035156 1162.027344 930.871094 C 1164.023438 930.703125 1166.023438 930.589844 1168.027344 930.523438 C 1170.03125 930.457031 1172.035156 930.4375 1174.039062 930.472656 C 1176.042969 930.503906 1178.046875 930.582031 1180.046875 930.714844 C 1182.046875 930.84375 1184.042969 931.023438 1186.035156 931.253906 C 1188.027344 931.480469 1190.011719 931.757812 1191.988281 932.082031 C 1193.96875 932.410156 1195.9375 932.78125 1197.894531 933.203125 C 1199.855469 933.628906 1201.804688 934.097656 1203.738281 934.617188 C 1205.675781 935.132812 1207.597656 935.699219 1209.507812 936.3125 C 1211.417969 936.921875 1213.308594 937.582031 1215.183594 938.289062 C 1217.0625 938.992188 1218.917969 939.746094 1220.757812 940.539062 C 1222.597656 941.335938 1224.417969 942.179688 1226.214844 943.0625 C 1228.015625 943.949219 1229.789062 944.878906 1231.542969 945.851562 C 1233.292969 946.824219 1235.023438 947.839844 1236.726562 948.898438 C 1238.425781 949.957031 1240.101562 951.054688 1241.75 952.195312 C 1243.402344 953.335938 1245.019531 954.515625 1246.613281 955.734375 C 1248.203125 956.953125 1249.761719 958.214844 1251.292969 959.507812 C 1252.820312 960.804688 1254.316406 962.136719 1255.78125 963.507812 C 1257.242188 964.878906 1258.671875 966.28125 1260.066406 967.722656 C 1261.460938 969.164062 1262.820312 970.636719 1264.144531 972.140625 C 1265.464844 973.648438 1266.75 975.1875 1267.996094 976.757812 C 1269.242188 978.328125 1270.449219 979.925781 1271.617188 981.554688 C 1272.789062 983.183594 1273.914062 984.839844 1275 986.523438 C 1276.089844 988.207031 1277.132812 989.917969 1278.136719 991.652344 C 1279.140625 993.390625 1280.097656 995.148438 1281.015625 996.929688 Z M 1281.015625 996.929688 " fill-opacity="1" fill-rule="nonzero"/></svg>