<svg xmlns="http://www.w3.org/2000/svg" xmlns:xlink="http://www.w3.org/1999/xlink" width="4000" zoomAndPan="magnify" viewBox="0 0 3000 2999.999989" height="4000" preserveAspectRatio="xMidYMid meet" version="1.0"><defs><clipPath id="ae0b91befd"><path d="M 489 681 L 2510 681 L 2510 2321.03125 L 489 2321.03125 Z M 489 681 " clip-rule="nonzero"/></clipPath></defs><g clip-path="url(#ae0b91befd)"><path fill="#12945c" d="M 553.585938 744.902344 C 548.121094 740.09375 542.527344 735.289062 536.863281 730.617188 C 536.863281 749.046875 537.128906 777.289062 537.71875 815.535156 C 537.71875 822.382812 537.917969 827.058594 537.917969 828.242188 L 537.917969 875.902344 C 537.984375 907.832031 537.984375 939.691406 537.917969 971.421875 C 537.917969 985.179688 536.074219 997.492188 534.230469 1009.40625 C 531.796875 1026.523438 529.6875 1041.269531 532.980469 1057.199219 C 538.511719 1084.847656 538.246094 1109.796875 537.984375 1136.261719 C 537.917969 1141.988281 537.917969 1147.78125 537.917969 1153.640625 L 537.917969 1508.464844 C 537.917969 1525.84375 535.8125 1543.222656 533.835938 1560.074219 C 530.875 1584.628906 528.175781 1607.867188 531.664062 1629.523438 C 536.335938 1659.808594 533.835938 1688.96875 531.53125 1717.210938 C 529.621094 1740.710938 527.648438 1762.699219 529.820312 1784.753906 C 533.636719 1823.527344 537.917969 1875.335938 537.917969 1931.289062 L 537.917969 2266.167969 C 541.539062 2263.074219 545.027344 2259.847656 548.515625 2256.753906 C 548.648438 2256.558594 548.78125 2256.492188 548.910156 2256.359375 C 546.9375 2252.210938 547.988281 2247.144531 551.875 2244.445312 C 552.136719 2244.179688 552.53125 2243.917969 552.796875 2243.652344 L 552.796875 1906.933594 C 552.796875 1855.386719 548.78125 1807.464844 545.289062 1771.390625 C 542.921875 1748.21875 544.894531 1725.042969 546.804688 1702.726562 C 549.042969 1676.527344 551.082031 1651.777344 547.066406 1626.628906 C 543.316406 1602.402344 546.277344 1577.519531 549.175781 1553.425781 C 550.953125 1537.625 552.796875 1522.683594 552.796875 1508.070312 L 552.796875 1173.324219 C 552.796875 1167.59375 552.925781 1162.199219 552.925781 1156.601562 C 553.191406 1133.296875 553.453125 1111.113281 548.648438 1088.074219 C 544.632812 1068.125 547.199219 1050.351562 549.699219 1033.238281 C 551.214844 1023.03125 552.796875 1012.367188 552.796875 1001.375 C 552.925781 971.421875 552.925781 941.335938 552.796875 911.449219 L 552.796875 866.355469 C 552.796875 865.304688 552.796875 861.023438 552.664062 854.769531 C 551.609375 782.359375 551.082031 755.300781 553.585938 744.902344 Z M 594.136719 782.09375 C 586.632812 774.851562 579.128906 767.679688 571.425781 760.699219 C 571.160156 776.105469 571.292969 807.375 572.082031 854.375 C 572.214844 860.894531 572.214844 865.304688 572.214844 866.355469 L 572.214844 911.320312 C 572.347656 941.335938 572.347656 971.421875 572.214844 1001.507812 C 572.214844 1013.816406 570.570312 1025.074219 568.859375 1036.066406 C 566.488281 1052.328125 564.316406 1067.601562 567.671875 1084.1875 C 572.875 1109.203125 572.609375 1132.375 572.347656 1156.867188 C 572.347656 1162.328125 572.214844 1167.726562 572.214844 1173.324219 L 572.214844 1508.070312 C 572.214844 1523.867188 570.304688 1540.0625 568.460938 1555.796875 C 565.632812 1579.496094 562.867188 1602.007812 566.355469 1623.667969 C 570.699219 1651.117188 568.460938 1678.238281 566.160156 1704.441406 C 564.316406 1726.820312 562.472656 1748.085938 564.578125 1769.480469 C 568.066406 1806.015625 572.214844 1854.597656 572.214844 1906.933594 L 572.214844 2228.84375 C 578.335938 2224.167969 584.261719 2219.429688 590.253906 2214.621094 C 587.621094 2212.648438 585.972656 2209.6875 585.972656 2204.617188 L 585.972656 1881.785156 C 585.972656 1833.597656 582.089844 1788.769531 578.730469 1755.0625 C 576.492188 1732.878906 578.46875 1711.023438 580.246094 1689.890625 C 582.351562 1665.535156 584.394531 1642.691406 580.640625 1619.519531 C 576.757812 1596.214844 579.71875 1572.582031 582.484375 1549.804688 C 584.261719 1534.992188 585.972656 1521.167969 585.972656 1507.671875 L 585.972656 1193.664062 C 585.972656 1188.464844 586.105469 1183.199219 586.105469 1178.128906 C 586.367188 1156.339844 586.632812 1135.734375 582.089844 1114.601562 C 578.074219 1095.183594 580.507812 1078.199219 583.011719 1061.742188 C 584.523438 1051.800781 585.972656 1042.453125 585.972656 1032.445312 C 586.105469 1004.335938 586.105469 976.226562 585.972656 948.117188 L 585.972656 905.855469 C 585.972656 904.800781 585.972656 900.917969 585.84375 894.925781 C 584.261719 793.21875 584.128906 784.003906 594.136719 782.09375 Z M 668.65625 1207.6875 C 668.917969 1188.003906 669.050781 1169.308594 665.035156 1150.28125 C 661.28125 1132.375 663.585938 1116.839844 665.757812 1101.832031 C 667.207031 1092.878906 668.523438 1084.320312 668.523438 1075.367188 C 668.65625 1049.824219 668.65625 1024.285156 668.523438 998.675781 L 668.523438 960.296875 C 668.523438 959.375 668.523438 955.753906 668.394531 950.554688 C 667.601562 899.535156 667.207031 873.863281 668.65625 860.761719 C 652.988281 842.460938 636.464844 824.6875 619.546875 807.375 C 616.519531 807.375 613.554688 807.375 611.121094 807.375 C 610.855469 821.988281 611.121094 851.152344 611.777344 894.597656 C 611.910156 900.65625 611.910156 904.800781 611.910156 905.855469 L 611.910156 948.117188 C 611.976562 976.226562 611.976562 1004.335938 611.910156 1032.578125 C 611.910156 1044.363281 610.199219 1055.15625 608.617188 1065.625 C 606.445312 1080.4375 604.339844 1094.394531 607.5 1109.203125 C 612.503906 1133.167969 612.238281 1155.21875 611.976562 1178.390625 C 611.976562 1183.460938 611.910156 1188.464844 611.910156 1193.664062 L 611.910156 1507.671875 C 611.910156 1522.878906 610.066406 1538.152344 608.222656 1552.898438 C 605.523438 1574.953125 602.957031 1595.6875 606.183594 1615.371094 C 610.460938 1641.703125 608.222656 1667.378906 606.050781 1692.0625 C 604.207031 1712.933594 602.5625 1732.679688 604.472656 1752.496094 C 607.960938 1786.660156 611.910156 1832.480469 611.910156 1881.785156 L 611.910156 2191.648438 C 613.425781 2191.648438 615.269531 2191.648438 616.914062 2191.648438 C 634.949219 2175.453125 652.199219 2158.46875 668.523438 2140.761719 C 668.523438 2140.628906 668.523438 2140.5 668.523438 2140.367188 L 668.523438 1846.960938 C 668.523438 1803.316406 665.035156 1762.566406 661.875 1732.023438 C 659.835938 1711.8125 661.613281 1691.800781 663.324219 1672.511719 C 665.296875 1650.65625 667.074219 1629.722656 663.585938 1609.050781 C 660.097656 1587.65625 662.796875 1566 665.429688 1545.261719 C 666.945312 1531.898438 668.523438 1519.324219 668.523438 1507.148438 L 668.523438 1221.90625 C 668.523438 1217.035156 668.523438 1212.359375 668.65625 1207.6875 Z M 872.335938 1630.644531 C 877.667969 1590.09375 875.230469 1548.09375 865.75 1507.542969 C 864.828125 1507.671875 863.777344 1507.671875 862.789062 1507.410156 C 846.988281 1503.394531 829.214844 1506.292969 815.457031 1514.914062 C 801.5 1523.738281 790.835938 1539.140625 787.742188 1555.136719 C 787.214844 1557.179688 786.164062 1559.152344 784.515625 1560.535156 C 774.640625 1569.09375 764.570312 1577.914062 757.660156 1588.578125 C 752.0625 1597.070312 750.546875 1610.566406 753.644531 1622.21875 C 754.695312 1626.101562 753.117188 1630.25 749.890625 1632.621094 C 734.484375 1644.007812 724.742188 1664.746094 725.535156 1683.375 C 732.90625 1683.636719 740.675781 1684.824219 748.179688 1687.457031 C 752.722656 1688.96875 757 1690.945312 761.015625 1693.25 C 767.007812 1681.992188 775.695312 1674.488281 782.671875 1670.734375 C 792.8125 1665.402344 799.789062 1665.929688 800.449219 1668.101562 C 801.371094 1670.601562 796.5625 1674.222656 790.703125 1681.070312 C 784.910156 1687.652344 778 1698.316406 776.222656 1711.15625 C 775.5625 1716.75 770.363281 1720.566406 764.898438 1719.84375 C 763.253906 1719.582031 761.804688 1719.054688 760.488281 1718.132812 L 759.632812 1717.472656 C 754.167969 1713.722656 747.914062 1710.496094 741.070312 1708.191406 C 723.097656 1701.675781 705.191406 1703.914062 692.617188 1707.796875 C 690.578125 1708.457031 688.867188 1709.046875 687.023438 1709.574219 C 686.890625 1716.222656 687.023438 1722.804688 687.679688 1729.390625 C 689.523438 1747.820312 691.566406 1770.007812 692.882812 1794.230469 C 737.582031 1787.847656 784.121094 1803.183594 815.851562 1835.574219 L 818.089844 1837.746094 C 823.09375 1843.078125 827.898438 1848.148438 833.097656 1848.871094 C 835.140625 1849.265625 837.90625 1849.003906 840.605469 1848.738281 L 868.582031 1846.039062 C 868.582031 1824.515625 868.1875 1803.515625 867.726562 1783.304688 C 866.410156 1732.550781 865.226562 1684.425781 872.335938 1630.644531 Z M 996.09375 1425.648438 C 986.550781 1442.105469 976.675781 1458.167969 966.933594 1473.96875 C 952.84375 1497.207031 938.230469 1521.167969 924.867188 1545.261719 C 922.761719 1549.148438 918.347656 1551.121094 914.070312 1550.070312 C 909.792969 1549.015625 906.699219 1545.261719 906.699219 1540.851562 C 906.171875 1518.601562 905.644531 1496.285156 905.117188 1473.96875 C 904.65625 1453.363281 904.128906 1432.757812 903.734375 1412.15625 C 902.945312 1411.628906 902.285156 1411.167969 901.496094 1410.640625 C 900.96875 1413.867188 900.640625 1416.960938 900.113281 1420.1875 C 898.796875 1428.613281 897.480469 1437.167969 896.558594 1445.726562 C 896.363281 1447.964844 895.703125 1454.679688 889.320312 1458.167969 C 886.355469 1459.882812 880.300781 1461.660156 872.464844 1455.46875 C 871.480469 1454.679688 870.558594 1453.890625 869.503906 1453.101562 C 891.558594 1510.308594 899.589844 1573.371094 891.6875 1633.277344 C 884.644531 1685.480469 885.828125 1732.8125 887.144531 1782.777344 C 887.671875 1802.660156 888.066406 1823.132812 888.066406 1844.132812 L 894.125 1843.605469 C 895.046875 1843.605469 895.703125 1843.605469 896.558594 1843.738281 C 891.820312 1781.789062 894.386719 1719.1875 904.65625 1657.632812 C 905.25 1653.222656 906.039062 1648.550781 906.699219 1643.875 C 910.316406 1620.046875 914.332031 1593.054688 926.777344 1571.726562 C 942.246094 1545.261719 956.464844 1517.679688 969.300781 1489.769531 C 979.042969 1468.769531 987.933594 1447.308594 996.09375 1425.648438 Z M 1039.28125 1864.933594 C 1039.28125 1861.707031 1038.621094 1858.613281 1037.238281 1855.914062 C 1033.945312 1849.265625 1030.851562 1845.644531 1026.96875 1844.261719 C 1024.664062 1843.472656 1022.691406 1841.761719 1021.636719 1839.457031 C 1017.753906 1831.558594 1017.226562 1823.261719 1016.832031 1815.890625 C 1016.699219 1813.390625 1016.566406 1811.085938 1016.371094 1808.714844 C 1015.710938 1805.621094 1007.8125 1798.511719 1000.902344 1794.890625 C 990.300781 1806.277344 977.070312 1812.335938 966.601562 1813.785156 C 952.316406 1815.757812 944.417969 1810.953125 944.945312 1808.1875 C 945.339844 1805.09375 952.710938 1803.777344 962.191406 1798.90625 C 971.472656 1794.230469 983.324219 1785.277344 990.828125 1771.914062 C 995.566406 1763.359375 998.332031 1754.273438 999.980469 1745.847656 C 1000.503906 1730.835938 997.542969 1714.90625 990.960938 1701.808594 C 983.324219 1708.585938 975.292969 1712.472656 968.644531 1714.90625 C 954.753906 1719.710938 946.0625 1719.710938 944.945312 1717.078125 C 943.628906 1714.25 950.871094 1708.785156 961.535156 1701.148438 C 971.738281 1693.90625 985.234375 1682.125 986.679688 1667.246094 C 987.601562 1659.808594 985.628906 1651.777344 982.535156 1644.929688 C 979.441406 1638.082031 975.160156 1631.828125 971.34375 1626.628906 C 963.574219 1616.160156 958.308594 1608.921875 960.347656 1606.550781 C 962.191406 1604.378906 970.617188 1607.078125 982.269531 1615.765625 C 983.324219 1616.558594 984.3125 1617.414062 985.363281 1618.203125 C 986.417969 1594.109375 976.542969 1569.75 959.164062 1553.164062 C 954.03125 1562.640625 948.960938 1572.1875 943.628906 1581.402344 C 933.03125 1599.703125 929.410156 1623.667969 925.855469 1646.707031 C 925.261719 1651.511719 924.472656 1656.316406 923.8125 1660.859375 C 913.675781 1721.886719 911.109375 1783.960938 916.175781 1845.382812 C 917.558594 1845.515625 919.007812 1845.644531 920.324219 1845.910156 C 927.699219 1846.960938 934.675781 1848.015625 941.851562 1848.148438 C 971.210938 1842.417969 1008.933594 1849.265625 1039.28125 1864.933594 Z M 1140.855469 1393.65625 C 1141.644531 1378.054688 1136.246094 1360.476562 1124.792969 1342.835938 C 1122.488281 1339.347656 1122.882812 1334.671875 1125.582031 1331.316406 C 1135.917969 1318.875 1141.25 1299.714844 1139.339844 1282.46875 C 1138.945312 1279.96875 1138.417969 1277.53125 1137.761719 1275.160156 C 1134.667969 1274.4375 1130.125 1265.878906 1120.910156 1255.480469 C 1110.96875 1244.222656 1094.246094 1230.988281 1072.722656 1223.617188 C 1051.0625 1216.242188 1029.273438 1215.324219 1013.472656 1215.324219 C 997.542969 1215.324219 987.074219 1215.847656 986.285156 1212.753906 C 985.496094 1209.988281 994.710938 1204.195312 1011.566406 1200.050781 C 1024.996094 1196.691406 1044.214844 1194.847656 1065.085938 1198.996094 C 1065.480469 1198.601562 1065.613281 1198.074219 1065.941406 1197.679688 C 1073.117188 1191.492188 1076.867188 1182.40625 1077.394531 1169.832031 C 1077.789062 1159.105469 1073.644531 1147.914062 1066.070312 1140.144531 C 1063.636719 1137.707031 1062.714844 1134.089844 1063.636719 1130.664062 C 1066.597656 1120.460938 1069.496094 1109.730469 1069.496094 1099.066406 C 1069.496094 1091.429688 1068.574219 1085.570312 1066.730469 1080.832031 C 1064.820312 1075.367188 1061.597656 1071.21875 1057.644531 1068.917969 C 1053.367188 1066.546875 1051.722656 1061.347656 1053.5 1056.804688 C 1059.621094 1042.058594 1050.800781 1022.375 1038.882812 1010.328125 C 1028.023438 999.398438 1012.289062 991.632812 989.378906 985.707031 C 969.433594 980.636719 953.109375 979.058594 938.230469 980.769531 C 916.308594 983.074219 895.703125 993.082031 880.167969 1008.617188 C 870.03125 1018.886719 862.65625 1031.394531 857.851562 1044.886719 C 861.339844 1044.03125 864.960938 1043.375 868.84375 1043.242188 C 875.757812 1042.847656 882.734375 1044.230469 889.054688 1046.730469 C 897.613281 1030.011719 912.554688 1020.925781 923.417969 1018.226562 C 937.570312 1014.605469 945.867188 1018.359375 945.601562 1020.53125 C 945.472656 1023.097656 938.097656 1024.546875 928.488281 1030.539062 C 919.140625 1035.933594 907.355469 1047.785156 904.789062 1063.585938 C 903.867188 1069.246094 898.535156 1073.0625 892.9375 1072.140625 C 891.425781 1071.878906 889.976562 1071.351562 888.792969 1070.429688 L 888.066406 1069.902344 C 883.261719 1066.679688 876.746094 1064.769531 869.765625 1065.097656 C 862.527344 1065.230469 855.746094 1067.996094 850.082031 1072.140625 C 849.820312 1072.535156 849.558594 1073.0625 849.03125 1073.261719 C 835.074219 1084.847656 827.371094 1107.097656 830.402344 1127.703125 C 830.796875 1131.191406 829.480469 1134.613281 826.648438 1136.789062 C 803.015625 1154.957031 789.257812 1188.003906 792.023438 1217.5625 C 794.457031 1217.429688 797.089844 1217.625 799.789062 1217.890625 C 802.488281 1207.421875 808.480469 1198.863281 814.535156 1192.742188 C 823.355469 1183.988281 832.835938 1179.183594 840.605469 1176.023438 C 856.402344 1170.230469 866.410156 1169.703125 867.460938 1172.136719 C 868.714844 1175.035156 860.15625 1180.695312 847.714844 1189.253906 C 841.527344 1193.664062 834.613281 1198.996094 829.214844 1205.84375 C 823.75 1212.886719 819.605469 1221.707031 819.867188 1230.199219 C 820 1236.191406 815.195312 1241.128906 809.269531 1241.390625 C 808.214844 1241.390625 807.292969 1241.257812 806.371094 1240.996094 L 805.847656 1240.863281 C 804.332031 1240.46875 802.75 1240.074219 801.238281 1239.8125 C 794.0625 1238.625 786.953125 1239.152344 780.371094 1240.734375 C 779.183594 1241.785156 778 1242.640625 776.617188 1243.695312 C 774.117188 1245.671875 771.945312 1247.316406 771.285156 1247.972656 C 765.292969 1253.570312 759.632812 1260.019531 754.300781 1267.066406 C 743.898438 1281.019531 735.605469 1296.425781 729.945312 1312.75 C 722.175781 1335.199219 726.324219 1369.300781 743.898438 1388.585938 C 746.664062 1382.597656 750.152344 1377.59375 753.773438 1374.039062 C 762.59375 1365.546875 770.496094 1364.230469 771.945312 1366.535156 C 773.722656 1369.167969 769.96875 1374.695312 766.347656 1383.125 C 762.59375 1391.417969 759.238281 1403.464844 760.882812 1415.90625 C 762.726562 1428.347656 769.179688 1439.144531 775.039062 1446.121094 C 780.894531 1453.230469 786.03125 1457.511719 785.042969 1460.539062 C 784.253906 1463.238281 776.222656 1464.160156 765.425781 1458.167969 C 755.882812 1453.101562 744.558594 1441.183594 740.410156 1424.203125 C 738.371094 1430.851562 737.582031 1437.433594 738.5 1443.421875 C 740.214844 1455.996094 747.324219 1468.042969 757.527344 1475.546875 C 760.753906 1477.851562 762.199219 1482.132812 761.015625 1486.015625 C 759.5 1491.742188 762.859375 1499.117188 765.953125 1504.316406 C 769.308594 1509.78125 775.039062 1513.796875 781.292969 1515.046875 C 782.671875 1515.308594 783.859375 1515.96875 785.042969 1516.757812 C 790.574219 1509.648438 797.355469 1503.394531 805.121094 1498.457031 C 821.316406 1488.253906 841.65625 1484.238281 860.550781 1487.199219 C 853.046875 1461.789062 842.578125 1437.300781 829.480469 1414.523438 C 821.449219 1418.410156 813.417969 1420.054688 806.636719 1420.1875 C 789.257812 1420.582031 780.632812 1413.472656 781.621094 1410.902344 C 782.542969 1407.875 791.890625 1408.796875 804.464844 1404.914062 C 816.90625 1401.425781 832.046875 1391.550781 838.695312 1373.90625 C 840.605469 1368.773438 841.65625 1363.441406 841.921875 1358.371094 L 841.921875 1357.515625 C 842.183594 1351.789062 847.054688 1347.378906 852.78125 1347.640625 C 855.285156 1347.773438 857.324219 1348.695312 859.035156 1350.078125 C 868.976562 1358.503906 883.261719 1359.160156 892.347656 1357.253906 C 901.761719 1355.410156 907.355469 1351.65625 909.398438 1353.5 C 911.238281 1354.75 908.9375 1362.914062 897.480469 1369.761719 C 891.953125 1373.050781 884.117188 1375.75 875.097656 1375.882812 C 870.6875 1376.011719 866.015625 1375.488281 861.210938 1374.039062 C 860.550781 1376.671875 860.023438 1379.238281 859.035156 1381.871094 C 856.007812 1389.640625 851.464844 1396.355469 846.199219 1402.082031 C 855.875 1413.996094 866.542969 1425.121094 878.324219 1435.128906 C 879.113281 1429.007812 879.96875 1423.214844 880.890625 1417.222656 C 882.207031 1408.796875 883.527344 1400.238281 884.445312 1391.679688 C 884.644531 1388.457031 886.75 1385.492188 889.714844 1384.046875 C 892.542969 1382.464844 896.097656 1382.597656 898.929688 1384.308594 C 902.8125 1386.613281 906.433594 1389.507812 909.792969 1392.339844 C 912.820312 1394.710938 915.652344 1397.011719 918.21875 1398.59375 C 921.113281 1400.238281 922.890625 1403.332031 923.023438 1406.757812 C 923.417969 1429.007812 924.078125 1451.324219 924.601562 1473.574219 C 924.867188 1484.238281 925.128906 1494.835938 925.394531 1505.5 C 933.621094 1491.347656 942.046875 1477.523438 950.34375 1463.898438 C 963.3125 1442.632812 976.675781 1420.84375 988.984375 1398.855469 C 980.558594 1399.582031 972.660156 1398.726562 966.734375 1396.75 C 952.449219 1392.207031 946.855469 1384.175781 948.433594 1382.003906 C 950.144531 1379.238281 957.914062 1381.742188 969.300781 1381.609375 C 980.558594 1381.742188 996.359375 1378.515625 1008.40625 1368.246094 C 1012.949219 1364.230469 1019.992188 1364.757812 1023.875 1369.429688 C 1025.390625 1371.078125 1026.179688 1373.183594 1026.441406 1375.355469 L 1026.441406 1375.75 L 1026.574219 1376.539062 C 1028.152344 1392.207031 1038.621094 1403.859375 1048.230469 1409.191406 C 1058.039062 1414.917969 1066.203125 1415.90625 1066.597656 1419.066406 C 1067.125 1421.765625 1058.304688 1426.964844 1042.898438 1423.675781 C 1036.183594 1422.160156 1028.417969 1418.410156 1021.503906 1412.15625 C 1011.433594 1441.054688 999.847656 1469.953125 987.074219 1497.863281 C 986.023438 1500.039062 984.839844 1502.210938 983.785156 1504.449219 C 998.726562 1514.585938 1016.964844 1519.589844 1035 1518.402344 C 1043.820312 1517.941406 1054.15625 1514.785156 1057.183594 1507.804688 C 1058.699219 1504.449219 1061.925781 1502.210938 1065.613281 1502.011719 C 1078.449219 1501.355469 1090.363281 1487.859375 1096.289062 1479.828125 C 1103.398438 1470.347656 1108.203125 1457.773438 1111.101562 1441.710938 C 1111.691406 1438.355469 1113.929688 1435.65625 1116.894531 1434.339844 C 1132.296875 1428.085938 1139.933594 1409.457031 1140.855469 1393.65625 Z M 1286.011719 2020.09375 C 1286.140625 2020.09375 1286.140625 2020.09375 1286.273438 2020.09375 C 1263.761719 1995.34375 1234.070312 1979.808594 1205.699219 1978.492188 C 1201.8125 1978.359375 1198.257812 1975.792969 1197.007812 1972.171875 C 1193.714844 1963.21875 1182.195312 1956.964844 1172.519531 1954.132812 C 1157.3125 1949.589844 1142.171875 1948.667969 1126.242188 1947.550781 C 1121.171875 1947.285156 1116.101562 1946.890625 1110.96875 1946.367188 C 1114.457031 1949.589844 1117.550781 1952.816406 1119.855469 1955.976562 C 1128.148438 1967.234375 1129.863281 1976.054688 1127.425781 1977.4375 C 1124.660156 1979.148438 1118.605469 1973.816406 1108.992188 1966.96875 C 1099.25 1960.125 1085.558594 1951.828125 1068.707031 1947.15625 C 1052.117188 1942.085938 1035.660156 1942.085938 1024.796875 1943.007812 C 1014.921875 1943.601562 1011.828125 1949.460938 1008.800781 1949.460938 C 1007.417969 1949.460938 1005.707031 1946.890625 1006.890625 1942.085938 C 1007.8125 1937.542969 1012.816406 1931.289062 1020.121094 1928.195312 C 1030.589844 1923.785156 1044.742188 1921.351562 1060.148438 1923.191406 C 1052.644531 1912.921875 1047.3125 1900.746094 1043.03125 1890.476562 L 1042.242188 1888.960938 C 1014.265625 1870.527344 973.710938 1861.445312 944.679688 1867.304688 C 944.15625 1867.433594 943.496094 1867.566406 942.839844 1867.566406 C 933.953125 1867.566406 925.65625 1866.25 917.558594 1865.132812 C 909.792969 1863.945312 902.550781 1862.894531 895.046875 1862.894531 L 851.859375 1867.171875 C 856.007812 1871.582031 859.761719 1876.386719 862.789062 1881.984375 C 868.320312 1891.660156 871.480469 1902.324219 872.730469 1912.527344 C 887.804688 1909.171875 901.234375 1911.34375 910.054688 1914.964844 C 921.96875 1919.769531 926.644531 1925.890625 925.523438 1927.667969 C 924.207031 1929.777344 917.691406 1927.667969 907.222656 1926.878906 C 896.824219 1926.023438 881.683594 1927.144531 867.921875 1935.304688 C 863.316406 1938.070312 857.195312 1936.492188 854.496094 1931.816406 C 853.574219 1930.433594 853.179688 1928.722656 853.046875 1927.144531 L 853.046875 1926.15625 C 852.914062 1915.359375 849.820312 1903.445312 843.699219 1892.582031 C 831.386719 1870.132812 809.003906 1859.667969 792.023438 1856.96875 C 774.773438 1853.808594 763.121094 1856.703125 761.9375 1853.414062 C 760.753906 1851.109375 771.546875 1842.289062 792.941406 1841.5 C 793.074219 1841.5 793.339844 1841.5 793.402344 1841.5 C 766.214844 1818.851562 728.757812 1808.1875 693.804688 1813.652344 C 694.199219 1824.515625 694.394531 1835.707031 694.394531 1846.960938 L 694.394531 2047.019531 C 695.84375 2046.691406 697.421875 2046.691406 698.804688 2046.886719 C 723.691406 2052.878906 750.285156 2053.800781 775.433594 2049.652344 C 777.144531 2049.390625 778.921875 2049.519531 780.5 2050.179688 C 796.300781 2056.234375 815.457031 2057.949219 840.734375 2055.445312 C 845.542969 2054.984375 851.003906 2054.195312 855.285156 2051.957031 C 858.773438 2050.179688 861.339844 2047.28125 862 2044.582031 C 863.050781 2039.382812 868.054688 2036.027344 873.257812 2037.078125 C 891.292969 2040.699219 913.9375 2041.621094 934.082031 2039.777344 C 953.898438 2038 970.488281 2029.707031 979.441406 2017 C 981.613281 2014.039062 985.234375 2012.589844 988.722656 2013.117188 C 1015.316406 2017 1037.105469 2015.816406 1063.898438 2009.363281 C 1089.574219 2003.109375 1115.839844 2006.203125 1141.25 2009.234375 C 1153.429688 2010.617188 1164.949219 2011.933594 1176.402344 2012.328125 C 1192.730469 2012.984375 1209.320312 2014.5 1225.511719 2016.078125 C 1245.460938 2018.054688 1266.0625 2020.09375 1286.011719 2020.09375 Z M 1340.714844 1481.605469 C 1336.4375 1473.707031 1329.851562 1466.597656 1321.558594 1461.261719 C 1308.722656 1453.101562 1292.394531 1448.953125 1273.042969 1448.691406 C 1253.621094 1448.558594 1229 1450.402344 1212.28125 1453.496094 C 1208.660156 1454.023438 1205.039062 1452.707031 1202.800781 1449.875 C 1190.886719 1434.601562 1173.507812 1423.9375 1154.613281 1419.726562 C 1149.808594 1431.707031 1141.644531 1443.292969 1129.203125 1450.007812 C 1125.714844 1466.859375 1119.988281 1480.617188 1111.824219 1491.480469 C 1103.003906 1503.261719 1089.308594 1517.285156 1072.195312 1520.640625 C 1065.480469 1530.648438 1052.644531 1536.835938 1036.316406 1537.890625 C 1034.210938 1538.019531 1032.167969 1538.019531 1029.929688 1538.019531 C 1010.644531 1538.019531 991.421875 1532.292969 975.292969 1521.957031 C 973.054688 1526.5 970.882812 1530.976562 968.644531 1535.386719 C 979.636719 1544.867188 988.328125 1556.78125 994.582031 1570.015625 C 1011.828125 1566.527344 1029.667969 1565.734375 1047.046875 1568.238281 C 1084.371094 1546.054688 1126.898438 1537.101562 1164.355469 1543.683594 C 1173.769531 1545.261719 1183.117188 1547.832031 1192.203125 1551.121094 L 1286.933594 1488.78125 C 1293.1875 1484.632812 1300.296875 1479.828125 1308.984375 1477.722656 C 1320.109375 1475.152344 1330.839844 1477.523438 1340.714844 1481.605469 Z M 1582.640625 1817.667969 C 1578.625 1817.667969 1574.609375 1817.40625 1570.726562 1817.273438 C 1541.167969 1816.613281 1514.113281 1813.785156 1487.910156 1811.214844 C 1446.175781 1806.9375 1406.941406 1802.921875 1361.582031 1807.464844 C 1335.515625 1810.03125 1306.878906 1803.183594 1276.925781 1786.925781 C 1260.207031 1777.90625 1244.539062 1766.976562 1229.527344 1756.378906 C 1222.417969 1751.441406 1215.242188 1746.503906 1208 1741.699219 C 1207.210938 1741.832031 1206.554688 1741.964844 1205.828125 1741.964844 C 1201.683594 1741.964844 1197.730469 1739.265625 1196.613281 1735.117188 C 1196.480469 1734.851562 1196.613281 1734.722656 1196.480469 1734.589844 C 1140.066406 1699.632812 1076.339844 1676.265625 1010.644531 1666.917969 C 1010.25 1674.488281 1008.535156 1681.730469 1005.835938 1688.179688 C 1011.171875 1697.265625 1014.789062 1707.535156 1017.09375 1718.265625 C 1031.644531 1716.222656 1049.351562 1715.171875 1064.820312 1723.332031 C 1079.171875 1730.96875 1089.574219 1746.375 1092.667969 1763.882812 C 1103.53125 1767.503906 1113.667969 1774.351562 1120.644531 1782.777344 C 1127.03125 1790.613281 1131.441406 1800.023438 1133.21875 1810.03125 C 1140.722656 1810.164062 1149.019531 1811.480469 1156.457031 1813.390625 C 1161.855469 1805.621094 1169.753906 1800.023438 1178.445312 1798.378906 C 1188.582031 1796.273438 1199.445312 1798.644531 1207.871094 1804.566406 C 1219.390625 1803.316406 1233.28125 1808.320312 1238.347656 1810.691406 C 1254.28125 1818.195312 1267.378906 1831.6875 1274.359375 1847.882812 C 1288.773438 1847.621094 1304.707031 1850.449219 1316.488281 1854.203125 C 1329.984375 1844 1351.050781 1839.589844 1368.5625 1843.339844 C 1387.519531 1831.6875 1418.199219 1833.597656 1434.65625 1839.0625 C 1452.5625 1845.117188 1467.175781 1856.835938 1479.222656 1868.09375 C 1482.117188 1867.433594 1484.816406 1866.644531 1487.648438 1865.855469 C 1495.8125 1863.550781 1505.027344 1860.984375 1515.691406 1864.078125 C 1521.222656 1862.234375 1527.082031 1860.589844 1532.875 1858.878906 C 1538.207031 1857.296875 1543.539062 1855.914062 1548.671875 1854.203125 C 1555.847656 1839.851562 1568.027344 1826.488281 1582.640625 1817.667969 Z M 1456.445312 1707.796875 C 1505.289062 1710.496094 1555.320312 1713.0625 1604.429688 1710.101562 C 1565.394531 1684.558594 1516.285156 1671.855469 1469.675781 1675.605469 C 1467.175781 1675.738281 1464.738281 1675.078125 1462.894531 1673.566406 C 1423.53125 1642.558594 1370.40625 1631.699219 1324.257812 1645.191406 C 1320.636719 1646.246094 1316.753906 1645.0625 1314.121094 1642.230469 C 1300.886719 1627.15625 1280.480469 1618.859375 1263.496094 1621.691406 C 1259.941406 1622.21875 1256.453125 1620.96875 1254.28125 1618.070312 C 1238.480469 1598.257812 1217.21875 1582.589844 1193.714844 1572.714844 C 1189.765625 1573.898438 1185.355469 1572.582031 1182.855469 1568.828125 C 1182.722656 1568.699219 1182.722656 1568.566406 1182.722656 1568.433594 C 1175.613281 1566.132812 1168.371094 1564.089844 1160.933594 1562.773438 C 1127.164062 1556.914062 1088.257812 1565.605469 1054.15625 1586.605469 C 1052.117188 1587.789062 1049.746094 1588.316406 1047.441406 1587.921875 C 1032.300781 1585.417969 1016.566406 1585.683594 1001.296875 1588.449219 C 1005.046875 1602.402344 1005.96875 1617.082031 1003.664062 1631.300781 C 1006.101562 1636.238281 1007.8125 1641.570312 1009.0625 1646.96875 C 1080.753906 1656.582031 1150.335938 1682.125 1211.359375 1720.898438 C 1291.210938 1698.976562 1375.210938 1703.386719 1456.445312 1707.796875 Z M 1664.269531 1467.648438 L 1613.121094 1362.253906 C 1610.15625 1356.199219 1606.734375 1349.351562 1605.617188 1341.386719 C 1604.035156 1331.183594 1606.601562 1321.703125 1612.59375 1315.121094 C 1621.152344 1306.167969 1634.910156 1303.863281 1651.367188 1308.605469 C 1653.277344 1309.128906 1655.121094 1309.789062 1657.027344 1310.445312 C 1660.648438 1311.632812 1664.269531 1312.75 1667.691406 1313.410156 C 1662.359375 1271.9375 1648.601562 1231.386719 1627.472656 1195.375 L 1624.507812 1190.308594 C 1617.664062 1178.785156 1610.289062 1166.214844 1606.996094 1152.453125 C 1605.484375 1155.613281 1604.035156 1159.300781 1602.652344 1163.644531 C 1596.792969 1181.089844 1588.105469 1207.6875 1566.183594 1220.917969 C 1558.546875 1225.527344 1550.382812 1227.894531 1542.484375 1230.199219 C 1538.074219 1231.515625 1533.53125 1232.832031 1529.253906 1234.609375 C 1507.59375 1243.5625 1492.980469 1263.90625 1477.445312 1285.5625 C 1463.816406 1304.457031 1449.796875 1323.808594 1430.246094 1336.121094 L 1430.507812 1336.382812 C 1484.160156 1391.550781 1531.226562 1434.601562 1586.917969 1465.675781 C 1599.625 1472.851562 1612.988281 1479.300781 1626.089844 1485.621094 C 1627.140625 1483.054688 1628.394531 1480.617188 1630.5 1478.511719 C 1634.515625 1474.757812 1639.320312 1472.914062 1643.402344 1471.664062 C 1650.183594 1469.558594 1657.160156 1468.308594 1664.269531 1467.648438 Z M 1774.207031 1676.527344 C 1773.019531 1676.132812 1771.835938 1675.871094 1770.71875 1675.539062 C 1764.070312 1673.695312 1757.484375 1671.984375 1750.835938 1670.472656 C 1731.945312 1666.324219 1713.90625 1658.6875 1696.59375 1651.25 C 1687.507812 1647.496094 1678.421875 1643.613281 1669.339844 1640.253906 L 1547.816406 1596.214844 C 1482.25 1572.1875 1414.3125 1547.566406 1353.15625 1510.308594 C 1339.660156 1502.144531 1325.96875 1493.71875 1313.460938 1496.679688 C 1308.0625 1497.996094 1302.730469 1501.484375 1297.53125 1504.976562 L 1213.335938 1560.402344 C 1233.414062 1570.804688 1251.382812 1584.761719 1266.0625 1601.875 C 1286.539062 1600.363281 1308.457031 1609.050781 1324.519531 1624.984375 C 1374.023438 1612.542969 1429.585938 1624.191406 1471.847656 1655.921875 C 1528.726562 1652.300781 1588.238281 1671 1632.011719 1706.085938 C 1632.539062 1706.480469 1632.804688 1707.007812 1633.328125 1707.535156 C 1635.898438 1707.269531 1638.664062 1707.007812 1641.359375 1706.742188 C 1685.929688 1700.886719 1730.625 1688.707031 1774.207031 1676.527344 Z M 1779.933594 1849.003906 C 1789.609375 1844.261719 1800.671875 1838.800781 1811.398438 1835.835938 C 1778.484375 1831.292969 1743.59375 1827.410156 1705.28125 1824.25 C 1689.417969 1823 1673.484375 1822.078125 1657.554688 1821.023438 C 1671.972656 1831.558594 1682.835938 1846.960938 1687.113281 1864.339844 L 1723.386719 1862.101562 C 1739.449219 1851.242188 1759.394531 1851.503906 1771.640625 1853.019531 C 1774.207031 1851.898438 1776.90625 1850.449219 1779.933594 1849.003906 Z M 1792.703125 1937.542969 L 1182.589844 1937.015625 C 1191.414062 1940.242188 1205.171875 1947.023438 1212.414062 1959.597656 C 1250.660156 1963.347656 1288.25 1986.917969 1313.855469 2023.453125 C 1315.832031 2026.347656 1316.226562 2030.035156 1314.648438 2033.195312 C 1313.265625 2036.421875 1310.105469 2038.460938 1306.617188 2038.726562 C 1279.164062 2040.964844 1250.921875 2038.132812 1223.539062 2035.5 C 1207.738281 2033.984375 1191.414062 2032.273438 1175.746094 2031.746094 C 1163.433594 2031.351562 1150.992188 2029.96875 1139.078125 2028.519531 C 1114.195312 2025.558594 1090.757812 2022.792969 1068.574219 2028.257812 C 1040.925781 2034.839844 1018.28125 2036.421875 991.550781 2033.0625 C 978.78125 2047.546875 958.902344 2057.027344 935.859375 2059.265625 C 916.570312 2060.910156 895.574219 2060.382812 877.273438 2057.550781 C 874.308594 2062.359375 869.765625 2066.375 864.171875 2069.203125 C 856.929688 2072.957031 848.898438 2074.273438 842.710938 2074.800781 C 834.546875 2075.523438 826.976562 2075.917969 820 2075.917969 C 803.148438 2075.917969 788.796875 2073.746094 776.089844 2069.203125 C 749.101562 2073.351562 720.859375 2072.167969 694.394531 2065.847656 L 694.394531 2127.398438 C 711.644531 2127.398438 741.726562 2127.398438 756.011719 2127.398438 L 859.628906 2127.398438 C 872.003906 2127.398438 884.050781 2128.847656 895.703125 2130.097656 C 913.28125 2132.070312 929.804688 2133.980469 946 2131.28125 C 968.644531 2127.398438 990.433594 2127.398438 1011.566406 2127.398438 L 1309.117188 2127.398438 C 1318.925781 2107.453125 1339.398438 2093.296875 1361.582031 2091.257812 C 1367.046875 2075.523438 1377.777344 2063.542969 1391.40625 2057.949219 C 1399.039062 2041.09375 1412.734375 2026.808594 1429.847656 2018.515625 C 1445.847656 2010.878906 1464.210938 2008.707031 1481.589844 2012.328125 C 1490.742188 2000.015625 1507.59375 1994.289062 1522.011719 1995.476562 C 1546.894531 1979.28125 1576.191406 1969.144531 1606.996094 1966.445312 C 1628.523438 1964.601562 1648.207031 1966.707031 1665.71875 1972.761719 C 1683.753906 1979.148438 1699.421875 1989.878906 1710.417969 2003.636719 C 1721.609375 2002.1875 1733.390625 2005.21875 1742.542969 2011.011719 C 1746.625 1992.90625 1759.527344 1976.84375 1777.035156 1969.800781 C 1781.578125 1959.070312 1786.78125 1947.878906 1792.703125 1937.542969 Z M 1839.90625 1434.867188 L 1775.128906 1361.003906 C 1770.71875 1355.804688 1765.515625 1350.078125 1762.816406 1342.308594 C 1758.800781 1330.921875 1761.105469 1319.664062 1763.210938 1309.65625 C 1763.804688 1306.695312 1764.464844 1303.730469 1764.988281 1300.703125 C 1768.085938 1279.046875 1759.261719 1256.269531 1742.214844 1242.511719 C 1739.449219 1240.335938 1738.394531 1236.980469 1738.855469 1233.6875 L 1643.074219 1149.886719 C 1637.34375 1144.820312 1630.894531 1139.75 1624.773438 1138.628906 C 1624.773438 1152.585938 1633.066406 1166.738281 1641.230469 1180.300781 L 1644.191406 1185.5 C 1668.550781 1227.105469 1683.753906 1274.4375 1688.167969 1322.230469 C 1688.691406 1327.167969 1685.269531 1331.710938 1680.53125 1332.699219 C 1669.734375 1334.9375 1659.925781 1331.710938 1651.105469 1329.011719 C 1649.390625 1328.351562 1647.550781 1327.824219 1645.902344 1327.300781 C 1642.546875 1326.246094 1631.421875 1323.546875 1626.878906 1328.484375 C 1624.902344 1330.523438 1624.113281 1334.277344 1624.773438 1338.425781 C 1625.5625 1343.363281 1628.128906 1348.695312 1630.632812 1353.695312 L 1685.664062 1467.253906 C 1721.34375 1445.992188 1767.359375 1442.371094 1803.765625 1457.90625 C 1813.835938 1447.964844 1826.277344 1440.132812 1839.90625 1434.867188 Z M 1789.742188 1348.167969 L 1840.695312 1406.230469 C 1836.546875 1390.5625 1829.898438 1375.617188 1821.011719 1362.125 L 1818.113281 1357.84375 C 1810.347656 1346.324219 1801.394531 1333.222656 1803.105469 1317.292969 C 1804.289062 1306.695312 1809.953125 1298.136719 1814.890625 1290.632812 C 1816.601562 1288.128906 1818.113281 1285.695312 1819.5625 1283.191406 C 1829.042969 1266.605469 1829.570312 1247.183594 1828.382812 1233.6875 C 1827.066406 1219.863281 1823.445312 1205.972656 1819.429688 1192.414062 L 1764.464844 1237.375 C 1780.066406 1255.347656 1787.703125 1279.96875 1784.210938 1303.601562 C 1783.6875 1306.957031 1783.027344 1310.316406 1782.238281 1313.671875 C 1780.527344 1321.835938 1778.878906 1329.601562 1781.050781 1335.855469 C 1782.632812 1340.003906 1786.253906 1344.152344 1789.742188 1348.167969 Z M 1858.929688 1652.828125 C 1861.957031 1651.117188 1865.183594 1649.339844 1868.410156 1647.628906 C 1856.625 1641.570312 1844.972656 1636.898438 1833.585938 1632.621094 C 1812.453125 1624.589844 1790.53125 1616.292969 1768.347656 1597.730469 C 1731.023438 1566.65625 1690.207031 1539.667969 1646.957031 1517.546875 C 1638.265625 1513.136719 1629.445312 1508.992188 1620.757812 1504.710938 C 1606.472656 1497.863281 1591.726562 1490.691406 1577.507812 1482.660156 C 1519.707031 1450.402344 1471.320312 1406.359375 1416.683594 1349.8125 L 1415.628906 1348.824219 C 1414.183594 1347.378906 1412.734375 1345.929688 1411.351562 1344.546875 C 1406.941406 1345.074219 1402.53125 1342.570312 1400.949219 1338.160156 C 1400.488281 1336.777344 1400.488281 1335.332031 1400.554688 1333.882812 C 1391.40625 1325.191406 1381.792969 1317.160156 1370.929688 1311.632812 C 1356.777344 1304.457031 1336.042969 1300.441406 1320.375 1310.578125 C 1310.105469 1317.03125 1304.179688 1333.355469 1298.320312 1349.089844 C 1289.894531 1371.472656 1280.613281 1396.882812 1255.53125 1398.726562 L 1233.015625 1400.238281 C 1214.980469 1401.554688 1196.613281 1402.871094 1179.367188 1407.414062 C 1192.730469 1413.472656 1204.777344 1422.425781 1214.453125 1433.417969 C 1231.832031 1430.71875 1254.542969 1429.007812 1273.171875 1429.269531 C 1296.28125 1429.535156 1316.09375 1434.734375 1331.894531 1444.9375 C 1350.523438 1456.789062 1362.769531 1475.285156 1365.335938 1494.835938 C 1424.449219 1530.515625 1490.542969 1554.609375 1554.53125 1577.914062 L 1675.988281 1621.953125 C 1685.402344 1625.507812 1694.75 1629.394531 1704.097656 1633.410156 C 1720.6875 1640.386719 1737.933594 1647.628906 1755.117188 1651.511719 C 1762.027344 1653.09375 1768.875 1654.9375 1775.851562 1656.84375 C 1788.953125 1660.332031 1802.449219 1663.824219 1815.679688 1664.875 C 1829.042969 1661.253906 1842.472656 1657.765625 1855.96875 1654.539062 C 1857.019531 1654.015625 1857.941406 1653.488281 1858.929688 1652.828125 Z M 1893.292969 1825.039062 C 1886.050781 1821.816406 1878.019531 1820.5 1870.253906 1821.945312 C 1858.140625 1824.183594 1843.261719 1836.101562 1837.730469 1848.015625 C 1835.890625 1852.03125 1831.609375 1854.203125 1827.066406 1853.414062 C 1817.984375 1851.769531 1800.273438 1860.589844 1788.558594 1866.382812 C 1784.277344 1868.488281 1780.261719 1870.527344 1776.90625 1871.976562 C 1775.257812 1872.765625 1773.285156 1873.03125 1771.507812 1872.636719 C 1762.160156 1871.1875 1744.78125 1870.003906 1732.734375 1879.351562 C 1731.152344 1880.535156 1729.375 1881.195312 1727.402344 1881.324219 L 1679.609375 1884.289062 C 1674.277344 1884.550781 1669.867188 1880.796875 1669.339844 1875.597656 C 1666.902344 1851.898438 1646.5625 1830.636719 1623.125 1827.015625 C 1599.492188 1823.527344 1573.820312 1844.394531 1564.667969 1865.988281 C 1563.617188 1868.488281 1561.378906 1870.527344 1558.808594 1871.320312 C 1552.226562 1873.558594 1545.183594 1875.597656 1538.335938 1877.507812 C 1531.621094 1879.480469 1524.84375 1881.457031 1518.523438 1883.496094 C 1516.285156 1884.289062 1513.847656 1884.15625 1511.742188 1883.234375 C 1506.210938 1881.0625 1501.539062 1882.050781 1493.113281 1884.550781 C 1488.304688 1885.933594 1483.039062 1887.382812 1477.050781 1888.039062 C 1476.65625 1888.039062 1476.390625 1888.039062 1475.996094 1888.039062 C 1473.558594 1888.039062 1471.191406 1887.117188 1469.28125 1885.472656 C 1458.089844 1874.675781 1444.53125 1862.894531 1428.464844 1857.429688 C 1412.863281 1852.292969 1386.992188 1852.820312 1376.722656 1861.3125 C 1374.289062 1863.550781 1370.667969 1864.339844 1367.507812 1863.15625 C 1354.210938 1858.746094 1334.265625 1862.894531 1325.835938 1871.976562 C 1323.074219 1874.808594 1318.925781 1875.730469 1315.304688 1874.28125 C 1301.019531 1868.882812 1281.46875 1866.117188 1268.894531 1867.699219 C 1264.222656 1868.355469 1259.808594 1865.394531 1258.425781 1860.984375 C 1254.148438 1846.699219 1243.550781 1834.519531 1230.1875 1828.332031 C 1223.011719 1824.910156 1212.28125 1822.867188 1208.792969 1824.183594 C 1205.171875 1825.566406 1201.289062 1824.644531 1198.523438 1822.078125 C 1194.375 1818.0625 1187.921875 1816.085938 1182.328125 1817.40625 C 1179.496094 1817.929688 1176.796875 1819.707031 1174.429688 1822.078125 C 1179.101562 1824.910156 1183.777344 1828.003906 1187.792969 1832.480469 C 1196.746094 1842.15625 1201.417969 1854.730469 1201.878906 1866.644531 C 1212.148438 1865.132812 1221.367188 1865.722656 1227.949219 1867.171875 C 1237.558594 1869.410156 1242.363281 1872.898438 1241.96875 1874.941406 C 1241.046875 1879.480469 1219.523438 1876.257812 1194.507812 1888.304688 C 1189.765625 1890.476562 1184.171875 1888.566406 1181.933594 1883.761719 C 1181.078125 1881.984375 1180.8125 1880.007812 1181.078125 1878.164062 L 1181.339844 1877.046875 C 1182.722656 1867.699219 1179.628906 1855.914062 1171.597656 1847.226562 C 1164.882812 1839.851562 1155.273438 1835.441406 1145.925781 1833.597656 C 1136.707031 1831.6875 1127.820312 1832.28125 1120.117188 1833.863281 C 1104.847656 1836.957031 1095.234375 1842.023438 1093.324219 1839.324219 C 1091.613281 1837.351562 1097.867188 1827.542969 1114.71875 1819.511719 C 1114.457031 1810.820312 1111.230469 1801.867188 1105.636719 1795.089844 C 1100.039062 1788.375 1090.890625 1782.910156 1081.675781 1781 C 1077.394531 1780.078125 1074.300781 1776.328125 1074.039062 1771.914062 C 1073.246094 1758.289062 1066.070312 1745.980469 1055.738281 1740.449219 C 1045.730469 1735.25 1033.289062 1735.773438 1019.464844 1737.550781 C 1020.121094 1752.363281 1017.882812 1766.976562 1012.550781 1779.15625 C 1022.953125 1785.277344 1034.472656 1795.613281 1035.660156 1806.542969 C 1035.921875 1809.242188 1036.054688 1811.941406 1036.316406 1814.707031 C 1036.582031 1819.511719 1036.777344 1824.183594 1037.960938 1827.871094 C 1046.652344 1832.808594 1051.589844 1841.101562 1054.683594 1847.355469 C 1059.09375 1856.308594 1059.882812 1866.777344 1057.316406 1876.386719 C 1057.777344 1877.179688 1058.699219 1877.640625 1058.960938 1878.558594 L 1060.804688 1882.839844 C 1066.203125 1895.542969 1072.324219 1909.304688 1081.148438 1917.464844 L 1806.199219 1918.125 C 1807.78125 1916.148438 1809.164062 1913.976562 1811.003906 1912.265625 C 1822.128906 1901.007812 1838.984375 1887.777344 1859.984375 1881.0625 C 1859.984375 1880.402344 1859.71875 1879.746094 1859.851562 1879.085938 C 1860.378906 1872.503906 1862.683594 1866.382812 1864.789062 1860.984375 L 1865.972656 1857.691406 C 1870.84375 1844 1880.851562 1832.480469 1893.292969 1825.039062 Z M 2026.269531 1391.285156 C 2026.929688 1391.679688 2027.453125 1392.078125 2028.046875 1392.339844 C 2026.136719 1388.324219 2023.308594 1384.308594 2019.488281 1380.6875 C 2012.773438 1374.039062 2003.953125 1369.035156 1995.527344 1364.097656 L 1913.898438 1316.765625 C 1894.214844 1305.246094 1881.90625 1289.972656 1868.9375 1273.648438 L 1866.433594 1270.554688 C 1859.457031 1261.996094 1853.53125 1252.648438 1847.9375 1243.035156 C 1848.199219 1261.863281 1844.445312 1278.914062 1836.414062 1292.9375 C 1834.835938 1295.765625 1832.925781 1298.53125 1831.082031 1301.363281 C 1826.9375 1307.617188 1823.050781 1313.410156 1822.527344 1319.398438 C 1821.472656 1328.351562 1827.726562 1337.371094 1834.175781 1346.984375 L 1837.207031 1351.394531 C 1852.476562 1374.433594 1861.695312 1400.898438 1864.128906 1428.347656 C 1871.109375 1427.359375 1878.285156 1426.835938 1885.394531 1427.097656 C 1916.726562 1400.109375 1957.148438 1382.859375 1994.539062 1380.949219 C 2008.230469 1380.160156 2017.84375 1386.152344 2026.269531 1391.285156 Z M 2042.59375 1698.976562 C 2047.402344 1684.558594 2056.289062 1672.117188 2068.007812 1662.769531 C 2055.695312 1658.820312 2043.253906 1658.425781 2030.023438 1658.03125 C 2023.375 1657.898438 2016.789062 1657.765625 2009.945312 1657.238281 C 1960.308594 1653.222656 1912.1875 1660.859375 1863.339844 1672.644531 C 1852.214844 1678.898438 1840.167969 1684.558594 1824.238281 1684.824219 C 1823.710938 1684.824219 1823.183594 1684.824219 1822.65625 1684.824219 C 1821.011719 1684.824219 1819.300781 1684.558594 1817.589844 1684.558594 C 1808.4375 1687.0625 1799.089844 1689.761719 1789.609375 1692.328125 C 1742.34375 1705.691406 1693.367188 1719.582031 1643.863281 1725.902344 C 1581.523438 1734.0625 1517.335938 1730.574219 1455.390625 1727.21875 C 1381.398438 1723.203125 1305.167969 1719.1875 1233.148438 1735.378906 C 1235.585938 1737.089844 1238.21875 1738.738281 1240.652344 1740.582031 C 1255.332031 1750.652344 1270.476562 1761.316406 1286.140625 1769.875 C 1312.738281 1784.226562 1337.488281 1790.347656 1359.609375 1788.109375 C 1406.941406 1783.304688 1447.226562 1787.453125 1489.886719 1791.863281 C 1515.691406 1794.496094 1542.351562 1797.195312 1571.121094 1797.851562 C 1616.214844 1798.90625 1661.835938 1801.210938 1706.796875 1804.832031 C 1753.074219 1808.582031 1794.546875 1813.390625 1833.453125 1819.378906 C 1834.046875 1819.511719 1834.441406 1819.707031 1834.96875 1820.039062 C 1844.316406 1811.28125 1855.835938 1804.699219 1866.699219 1802.789062 C 1884.207031 1799.628906 1902.902344 1804.960938 1916.203125 1816.484375 C 1916.597656 1816.484375 1916.859375 1816.351562 1917.253906 1816.351562 C 1917.519531 1806.277344 1920.019531 1794.363281 1922.585938 1789.292969 C 1926.078125 1782.644531 1931.410156 1776.851562 1938.914062 1771.257812 C 1964.457031 1752.496094 2000.332031 1749.664062 2028.707031 1763.359375 C 2033.773438 1759.210938 2039.371094 1756.644531 2044.769531 1754.800781 C 2038.578125 1736.695312 2037.527344 1714.378906 2042.59375 1698.976562 Z M 2313.027344 1909.433594 C 2312.761719 1882.445312 2311.773438 1855.519531 2308.484375 1829.054688 C 2306.3125 1810.558594 2306.046875 1791.992188 2306.707031 1773.628906 C 2300.1875 1771.914062 2293.078125 1770.863281 2285.835938 1770.730469 C 2284.390625 1771.257812 2283.007812 1771.652344 2281.425781 1772.3125 C 2271.15625 1775.800781 2257.992188 1782.183594 2247.195312 1793.179688 C 2236.464844 1804.039062 2230.34375 1817.40625 2226.984375 1827.671875 C 2223.496094 1838.007812 2222.179688 1845.382812 2219.085938 1845.777344 C 2216.386719 1846.304688 2211.84375 1838.929688 2211.714844 1825.4375 C 2211.449219 1814.835938 2215.070312 1800.023438 2224.417969 1786.660156 C 2211.449219 1781.789062 2197.296875 1778.894531 2183.472656 1778.828125 C 2174.253906 1778.5 2166.75 1779.816406 2160.628906 1782.183594 C 2156.21875 1783.960938 2150.425781 1790.742188 2146.144531 1798.90625 C 2144.566406 1802 2141.339844 1804.039062 2137.851562 1804.171875 C 2118.761719 1804.832031 2100.921875 1826.882812 2092.230469 1847.09375 C 2090.652344 1850.714844 2087.164062 1853.019531 2083.015625 1853.019531 C 2078.339844 1852.953125 2073.929688 1852.820312 2069.652344 1852.558594 C 2049.835938 1851.898438 2035.484375 1851.242188 2016.394531 1858.085938 C 2004.085938 1862.628906 1991.90625 1887.25 1989.207031 1906.472656 C 1988.945312 1908.777344 1987.757812 1910.882812 1986.113281 1912.265625 C 1993.617188 1913.582031 2000.726562 1915.621094 2007.441406 1918.519531 C 2017.054688 1903.839844 2031.800781 1897.257812 2042.070312 1895.941406 C 2055.167969 1894.226562 2062.015625 1898.507812 2061.621094 1900.613281 C 2061.226562 1903.050781 2054.511719 1903.839844 2045.558594 1908.25 C 2036.867188 1912.398438 2025.347656 1921.613281 2021.597656 1935.175781 C 2020.148438 1940.507812 2014.617188 1943.601562 2009.417969 1942.21875 C 2008.890625 1942.085938 2008.363281 1941.824219 2007.835938 1941.691406 L 2006.914062 1941.164062 C 1999.28125 1937.675781 1990.589844 1934.976562 1981.175781 1933.660156 C 1958.464844 1930.304688 1936.742188 1936.226562 1924.300781 1943.601562 C 1911.332031 1951.039062 1908.300781 1960.453125 1905.207031 1960.453125 C 1903.761719 1960.386719 1902.378906 1957.359375 1903.167969 1951.699219 C 1903.761719 1946.101562 1907.511719 1938.335938 1914.6875 1931.554688 C 1919.230469 1927.144531 1925.023438 1923.257812 1931.804688 1919.902344 C 1930.882812 1919.242188 1930.09375 1918.519531 1929.433594 1917.597656 C 1919.886719 1902.324219 1899.347656 1893.898438 1878.679688 1896.464844 C 1855.441406 1899.429688 1836.546875 1914.242188 1824.765625 1926.023438 C 1815.019531 1935.832031 1806.59375 1951.566406 1800.339844 1965.128906 C 1802.84375 1964.863281 1805.277344 1964.535156 1807.910156 1964.535156 C 1847.804688 1963.613281 1877.363281 1977.964844 1875.386719 1983.558594 C 1873.742188 1989.351562 1844.050781 1985.46875 1808.4375 1986.257812 C 1796.128906 1986.523438 1785.988281 1988.363281 1777.828125 1991.328125 C 1769.136719 1997.1875 1762.816406 2006.730469 1761.105469 2017 C 1779.800781 2018.1875 1796.851562 2017.660156 1812.191406 2014.894531 C 1830.425781 2011.800781 1853.269531 2020.886719 1866.960938 2036.027344 C 1879.074219 2034.183594 1893.03125 2037.605469 1899.808594 2040.042969 C 1908.566406 2043.265625 1916.464844 2049.125 1922.191406 2056.761719 C 1935.425781 2054.195312 1950.039062 2052.613281 1965.707031 2052.351562 C 1983.21875 2051.824219 1999.148438 2055.445312 2012.117188 2062.488281 C 2026.007812 2054.457031 2040.226562 2050.179688 2057.867188 2048.46875 C 2064.121094 2035.367188 2075.378906 2023.453125 2088.609375 2016.605469 C 2101.183594 2009.890625 2115.796875 2007.523438 2129.953125 2009.761719 C 2142.789062 1988.234375 2164.90625 1968.417969 2186.699219 1959.203125 C 2200.324219 1937.675781 2223.363281 1919.375 2247.722656 1911.082031 C 2268.589844 1904.101562 2291.828125 1903.574219 2313.027344 1909.433594 Z M 2311.773438 1475.023438 L 2311.773438 1438.355469 C 2286.234375 1431.375 2265.101562 1415.050781 2244.628906 1399.054688 C 2224.679688 1383.519531 2205.855469 1368.902344 2183.734375 1362.648438 C 2153.652344 1354.222656 2114.878906 1365.941406 2093.746094 1389.902344 C 2091.835938 1392.078125 2088.875 1393.394531 2085.847656 1393.128906 C 2070.179688 1391.8125 2053.589844 1400.109375 2044.242188 1413.207031 C 2041.675781 1416.960938 2037 1418.277344 2032.851562 1416.695312 C 2026.269531 1414.261719 2020.804688 1410.902344 2016 1407.875 C 2008.628906 1403.203125 2003.425781 1399.84375 1995.527344 1400.371094 C 1961.820312 1402.082031 1923.507812 1418.933594 1895.332031 1444.214844 C 1893.425781 1445.992188 1890.855469 1446.914062 1888.09375 1446.78125 C 1859.71875 1444.675781 1830.425781 1456.390625 1813.441406 1476.074219 C 1810.480469 1479.433594 1805.542969 1480.484375 1801.65625 1478.378906 C 1769.003906 1461.789062 1725.097656 1464.753906 1692.445312 1485.753906 C 1690.46875 1487.070312 1688.296875 1487.59375 1685.929688 1487.199219 C 1673.617188 1485.621094 1660.914062 1486.675781 1649.128906 1490.292969 C 1648.011719 1490.558594 1645.640625 1491.347656 1644.324219 1492.269531 C 1644.585938 1493.058594 1644.585938 1493.914062 1644.585938 1494.835938 C 1648.339844 1496.679688 1652.15625 1498.324219 1655.777344 1500.300781 C 1700.34375 1523.078125 1742.476562 1550.859375 1780.789062 1582.851562 C 1800.472656 1599.308594 1819.828125 1606.683594 1840.429688 1614.449219 C 1857.019531 1620.703125 1874.136719 1627.417969 1892.109375 1638.808594 C 1895.730469 1639.070312 1898.886719 1641.441406 1900.269531 1644.929688 C 1936.9375 1638.28125 1974 1634.792969 2011.457031 1637.820312 C 2017.976562 1638.28125 2024.292969 1638.414062 2030.417969 1638.542969 C 2044.175781 1638.9375 2058.132812 1639.464844 2072.679688 1643.875 C 2071.625 1627.8125 2076.167969 1611.09375 2085.847656 1597.003906 C 2085.976562 1565.078125 2103.488281 1532.425781 2129.292969 1516.363281 C 2154.835938 1500.695312 2187.621094 1498.589844 2214.9375 1510.636719 C 2226.589844 1501.089844 2242.0625 1497.074219 2252.527344 1495.363281 C 2263.390625 1484.371094 2279.582031 1476.339844 2296.699219 1473.96875 C 2302.296875 1473.179688 2307.234375 1473.707031 2311.773438 1475.023438 Z M 2311.773438 1673.960938 L 2311.773438 1497.996094 C 2310.328125 1497.074219 2309.140625 1495.890625 2308.351562 1494.308594 C 2308.023438 1493.585938 2304.46875 1492.402344 2299.464844 1493.191406 C 2285.707031 1495.101562 2272.34375 1502.011719 2264.707031 1510.769531 C 2263.125 1512.742188 2260.953125 1513.925781 2258.585938 1514.191406 C 2247.984375 1515.574219 2238.636719 1518.734375 2231.660156 1522.878906 C 2233.238281 1523.210938 2234.886719 1523.339844 2236.464844 1523.867188 C 2246.539062 1527.027344 2255.09375 1533.085938 2261.480469 1540.195312 C 2268.0625 1534.003906 2275.238281 1529.988281 2280.902344 1528.277344 C 2289.457031 1525.710938 2294.789062 1526.699219 2295.316406 1528.671875 C 2296.699219 1532.953125 2278.726562 1540.0625 2269.25 1560.796875 C 2267.140625 1565.472656 2261.613281 1567.578125 2256.9375 1565.472656 C 2255.226562 1564.683594 2253.976562 1563.5625 2253.054688 1562.246094 L 2252.132812 1560.929688 C 2247.457031 1554.085938 2239.558594 1547.699219 2229.816406 1544.734375 C 2212.898438 1539.074219 2197.03125 1546.710938 2188.015625 1555.664062 C 2178.796875 1564.222656 2175.703125 1572.84375 2172.542969 1572.449219 C 2169.84375 1572.449219 2167.015625 1561.195312 2175.769531 1546.183594 C 2180.246094 1538.8125 2187.621094 1530.976562 2198.347656 1525.972656 C 2198.613281 1525.84375 2199.007812 1525.84375 2199.269531 1525.710938 C 2179.589844 1519.722656 2156.875 1522.222656 2139.496094 1532.953125 C 2118.761719 1545.789062 2104.410156 1573.898438 2105.332031 1599.703125 C 2105.464844 1601.875 2104.804688 1604.113281 2103.355469 1605.890625 C 2092.890625 1619.652344 2089.402344 1637.160156 2093.679688 1652.039062 C 2097.300781 1651.25 2100.921875 1650.722656 2104.671875 1650.722656 C 2115.273438 1650.394531 2124.882812 1651.90625 2133.574219 1653.882812 C 2136.929688 1640.914062 2144.699219 1631.699219 2151.28125 1627.023438 C 2160.234375 1620.835938 2166.882812 1620.835938 2167.671875 1622.613281 C 2168.660156 1624.71875 2164.382812 1628.605469 2159.839844 1635.582031 C 2155.296875 1642.296875 2150.425781 1653.488281 2151.675781 1665.664062 C 2152.335938 1670.867188 2148.582031 1675.539062 2143.382812 1676.132812 C 2142.527344 1676.132812 2141.734375 1676.132812 2140.945312 1676 L 2139.761719 1675.871094 C 2128.636719 1674.222656 2116.851562 1672.117188 2105.464844 1672.644531 C 2094.667969 1673.039062 2086.109375 1675.871094 2079 1681.203125 C 2074.195312 1684.558594 2070.308594 1688.707031 2066.820312 1692.855469 C 2064.449219 1696.738281 2062.410156 1700.753906 2061.09375 1704.902344 C 2056.417969 1719.054688 2059.054688 1742.359375 2066.820312 1757.167969 C 2068.269531 1759.867188 2068.269531 1763.09375 2066.820312 1765.925781 C 2065.503906 1768.691406 2062.804688 1770.730469 2059.84375 1771.257812 C 2049.046875 1772.96875 2042.332031 1776.195312 2037.789062 1781.660156 C 2034.695312 1785.277344 2029.363281 1786.199219 2025.214844 1783.566406 C 2002.503906 1769.875 1971.828125 1771.125 1950.433594 1786.925781 C 1945.363281 1790.742188 1941.875 1794.496094 1939.835938 1798.378906 C 1937.726562 1802.261719 1935.820312 1818.324219 1936.9375 1822.339844 C 1937.859375 1825.304688 1937.203125 1828.660156 1935.425781 1831.164062 C 1933.449219 1833.597656 1930.617188 1835.441406 1927.394531 1835.179688 C 1909.09375 1834.386719 1890.460938 1846.960938 1884.207031 1864.339844 L 1882.957031 1867.832031 C 1881.773438 1871.054688 1880.71875 1874.019531 1879.929688 1877.046875 C 1904.417969 1875.070312 1928.316406 1884.683594 1942.140625 1901.929688 C 1946.679688 1901.140625 1951.75 1900.21875 1956.820312 1899.164062 C 1961.820312 1898.242188 1966.757812 1897.257812 1971.300781 1896.464844 C 1975.84375 1876.125 1988.679688 1847.488281 2009.8125 1839.851562 C 2032.324219 1831.6875 2049.96875 1832.480469 2070.308594 1833.070312 C 2072.546875 1833.203125 2074.851562 1833.335938 2077.15625 1833.335938 C 2087.820312 1811.941406 2107.109375 1789.164062 2131.464844 1785.277344 C 2135.746094 1778.300781 2143.25 1768.164062 2153.519531 1764.148438 C 2162.078125 1760.789062 2171.6875 1759.210938 2183.734375 1759.34375 C 2199.402344 1759.472656 2215.332031 1762.4375 2230.078125 1768.03125 C 2251.472656 1751.441406 2282.21875 1748.480469 2307.628906 1753.945312 C 2308.023438 1746.375 2308.484375 1738.867188 2309.011719 1731.363281 C 2310.328125 1712.472656 2311.773438 1692.855469 2311.773438 1673.960938 Z M 2312.433594 1976.648438 C 2312.761719 1961.242188 2312.894531 1945.707031 2313.027344 1930.039062 C 2294.132812 1923.523438 2272.871094 1923.191406 2253.976562 1929.511719 C 2233.109375 1936.621094 2212.632812 1953.210938 2201.574219 1971.90625 C 2200.585938 1973.816406 2198.746094 1975.265625 2196.636719 1976.054688 C 2176.691406 1983.691406 2153.78125 2004.824219 2143.511719 2025.164062 C 2141.472656 2029.3125 2136.667969 2031.484375 2132.257812 2030.167969 C 2120.734375 2026.808594 2108.164062 2028.125 2097.695312 2033.722656 C 2086.765625 2039.382812 2077.417969 2050.046875 2073.800781 2060.777344 C 2072.546875 2064.660156 2069.125 2067.230469 2065.109375 2067.558594 C 2045.953125 2068.546875 2031.734375 2072.824219 2017.449219 2082.042969 C 2014.089844 2084.214844 2009.945312 2084.082031 2006.652344 2081.910156 C 1993.617188 2073.089844 1977.554688 2071.375 1966.101562 2071.773438 C 1951.089844 2072.035156 1937.332031 2073.746094 1924.757812 2076.183594 C 1926.601562 2080.988281 1927.65625 2085.792969 1927.789062 2090.597656 C 1947.867188 2089.675781 1960.703125 2090.730469 1961.097656 2093.824219 C 1961.558594 2097.3125 1945.234375 2103.039062 1919.492188 2108.703125 C 1915.082031 2109.625 1910.671875 2106.925781 1909.617188 2102.382812 C 1909.488281 2101.59375 1909.355469 2100.804688 1909.488281 2099.945312 L 1909.617188 2098.367188 C 1910.144531 2092.246094 1907.90625 2084.871094 1902.902344 2078.683594 C 1897.96875 2072.429688 1890.066406 2067.164062 1880.457031 2063.542969 C 1856.492188 2053.933594 1831.742188 2057.683594 1815.8125 2064.53125 C 1799.484375 2071.246094 1790.53125 2079.210938 1788.097656 2076.972656 C 1785.859375 2075.390625 1791.058594 2063.015625 1808.4375 2050.96875 C 1815.941406 2045.636719 1826.410156 2041.09375 1838.457031 2038.726562 C 1830.6875 2034.839844 1822.261719 2032.933594 1815.414062 2034.117188 C 1794.152344 2037.871094 1769.925781 2038.132812 1743.199219 2034.972656 C 1740.632812 2034.710938 1738.328125 2033.328125 1736.75 2031.351562 C 1731.417969 2024.503906 1718.316406 2020.886719 1709.167969 2023.585938 C 1705.152344 2024.902344 1700.738281 2023.320312 1698.238281 2019.832031 C 1689.550781 2007.125 1675.722656 1996.921875 1659.398438 1991.195312 C 1644.457031 1985.996094 1627.472656 1984.21875 1608.710938 1985.863281 C 1589.027344 1987.574219 1569.671875 1993.039062 1552.226562 2001.203125 C 1554.136719 2002.058594 1555.980469 2002.980469 1557.890625 2004.03125 C 1575.664062 2014.367188 1586.261719 2028.785156 1594.6875 2041.226562 C 1606.867188 2033.589844 1619.835938 2033.722656 1627.734375 2036.027344 C 1638.265625 2039.121094 1641.886719 2044.582031 1640.835938 2046.03125 C 1639.847656 2047.808594 1634.515625 2046.164062 1626.351562 2046.757812 C 1618.585938 2047.152344 1606.472656 2050.835938 1599.886719 2060.644531 C 1597.1875 2064.660156 1591.59375 2065.714844 1587.578125 2063.015625 C 1586.917969 2062.488281 1586.261719 2061.964844 1585.800781 2061.304688 L 1585.011719 2060.25 C 1574.347656 2047.414062 1562.695312 2031.878906 1547.289062 2023.058594 C 1536.164062 2017 1523.589844 2015.027344 1514.375 2018.1875 C 1505.160156 2020.886719 1498.3125 2028.785156 1493.769531 2036.421875 C 1485.34375 2052.351562 1482.382812 2065.582031 1478.957031 2064.792969 C 1477.445312 2064.660156 1476.390625 2061.304688 1476.128906 2055.445312 C 1475.863281 2049.917969 1476.128906 2041.886719 1479.222656 2031.878906 C 1465.660156 2028.652344 1450.980469 2029.96875 1438.277344 2036.027344 C 1424.320312 2042.871094 1413.128906 2054.984375 1407.730469 2069.074219 C 1406.675781 2071.902344 1404.308594 2074.140625 1401.476562 2074.929688 C 1390.351562 2078.289062 1381.660156 2088.625 1378.4375 2102.910156 C 1377.382812 2107.453125 1373.234375 2110.675781 1368.5625 2110.414062 C 1354.933594 2110.152344 1340.980469 2116.734375 1332.027344 2127.398438 L 1730.890625 2127.398438 C 1747.214844 2127.398438 1763.542969 2127.660156 1779.933594 2128.054688 C 1812.058594 2128.582031 1845.5 2129.175781 1877.625 2127.398438 C 1919.757812 2125.027344 1962.347656 2125.816406 2003.691406 2126.609375 C 2024.691406 2127.003906 2045.558594 2127.398438 2066.558594 2127.398438 L 2311.773438 2127.398438 L 2311.773438 2032.933594 C 2311.773438 2014.105469 2311.972656 1995.476562 2312.433594 1976.648438 Z M 2314.472656 1221.773438 C 2317.832031 1205.316406 2316.121094 1191.886719 2314.210938 1176.152344 C 2313.15625 1168.648438 2312.300781 1161.011719 2311.773438 1152.453125 C 2310.457031 1131.058594 2310.851562 1109.46875 2311.25 1088.46875 C 2311.511719 1077.933594 2311.773438 1067.601562 2311.773438 1057.332031 L 2311.773438 872.019531 L 1939.570312 872.019531 C 1916.597656 872.019531 1893.554688 873.203125 1871.109375 874.386719 C 1843.527344 875.640625 1815.019531 877.21875 1786.515625 876.429688 C 1766.703125 875.902344 1746.820312 875.246094 1727.136719 874.585938 C 1688.429688 873.335938 1648.339844 872.019531 1609.105469 872.019531 L 1063.375 872.019531 C 1053.039062 872.019531 1042.636719 871.753906 1032.167969 871.625 C 999.714844 870.832031 966.207031 870.242188 935.464844 876.5625 C 910.1875 881.894531 890.898438 878.667969 868.582031 874.980469 C 864.566406 874.386719 860.289062 873.730469 855.875 873.070312 C 834.613281 869.976562 813.285156 870.636719 790.703125 871.359375 C 780.894531 871.753906 770.890625 872.019531 761.015625 872.019531 L 756.605469 872.019531 C 744.558594 872.019531 711.644531 872.019531 693.671875 872.019531 C 693.539062 885.644531 693.671875 911.78125 694.265625 950.160156 C 694.394531 955.621094 694.394531 959.375 694.394531 960.296875 L 694.394531 998.675781 C 694.527344 1024.285156 694.527344 1049.824219 694.394531 1075.5 C 694.394531 1086.363281 692.882812 1096.234375 691.433594 1105.714844 C 689.390625 1119.539062 687.550781 1131.585938 690.378906 1144.820312 C 694.921875 1166.738281 694.789062 1186.816406 694.527344 1207.949219 C 694.394531 1212.625 694.394531 1217.101562 694.394531 1221.90625 L 694.394531 1507.148438 C 694.394531 1520.90625 692.75 1534.863281 691.039062 1548.355469 C 688.601562 1568.238281 686.296875 1587 689.261719 1604.773438 C 693.144531 1628.867188 691.039062 1652.171875 689.128906 1674.75 C 688.867188 1678.238281 688.601562 1681.597656 688.339844 1684.953125 C 693.933594 1682.386719 699.859375 1680.410156 705.851562 1679.621094 C 706.507812 1658.03125 716.84375 1635.582031 733.433594 1620.96875 C 730.996094 1605.628906 733.828125 1589.566406 741.332031 1577.914062 C 749.101562 1566 759.632812 1556.519531 769.308594 1547.960938 C 770.625 1542.957031 772.339844 1538.019531 774.640625 1533.214844 C 764.308594 1530.386719 754.960938 1523.472656 749.363281 1514.453125 C 743.570312 1504.710938 740.804688 1495.625 741.199219 1487.332031 C 729.285156 1476.734375 721.386719 1461.921875 719.214844 1445.992188 C 717.238281 1431.707031 720.992188 1415.445312 729.285156 1401.820312 C 706.507812 1376.539062 701.964844 1334.144531 711.644531 1306.429688 C 717.503906 1289.578125 725.796875 1273.910156 736.132812 1259.230469 C 736.921875 1256.53125 737.84375 1253.703125 739.292969 1250.542969 C 743.4375 1241.917969 751.207031 1232.304688 762.859375 1225.65625 C 765.953125 1223.878906 769.179688 1222.433594 772.734375 1221.179688 C 768.71875 1186.292969 783.59375 1148.175781 810.386719 1124.871094 C 809.402344 1110.125 812.363281 1095.050781 818.550781 1082.082031 C 820.789062 1076.15625 823.882812 1069.902344 828.6875 1064.109375 C 830.269531 1062.003906 832.179688 1060.09375 834.285156 1058.121094 C 838.167969 1034.289062 849.292969 1012.105469 866.410156 994.859375 C 885.039062 976.226562 909.792969 964.3125 935.992188 961.285156 C 953.371094 959.507812 971.871094 961.152344 994.1875 966.878906 C 1010.773438 971.160156 1035 978.796875 1052.773438 996.699219 C 1066.992188 1011.117188 1078.644531 1035.078125 1073.90625 1056.933594 C 1078.644531 1061.347656 1082.59375 1067.203125 1085.03125 1074.050781 C 1087.597656 1081.027344 1088.914062 1088.996094 1088.914062 1098.933594 C 1089.046875 1110.257812 1086.609375 1121.25 1083.847656 1130.929688 C 1092.667969 1142.121094 1097.339844 1156.339844 1096.816406 1170.753906 C 1096.289062 1182.671875 1093.324219 1192.875 1088.125 1201.300781 C 1100.171875 1207.027344 1111.429688 1214.003906 1121.832031 1222.167969 C 1123.410156 1222.433594 1124.792969 1223.089844 1126.242188 1224.011719 C 1143.882812 1237.242188 1156.0625 1258.242188 1158.628906 1280.097656 C 1160.933594 1300.308594 1155.667969 1321.96875 1144.738281 1338.160156 C 1155.667969 1356.988281 1160.800781 1375.355469 1160.210938 1392.996094 C 1183.644531 1384.308594 1208.921875 1382.464844 1231.570312 1380.820312 L 1254.148438 1379.238281 C 1265.800781 1378.515625 1271.792969 1364.757812 1280.085938 1342.308594 C 1287.0625 1323.679688 1294.171875 1304.191406 1309.839844 1294.253906 C 1328.800781 1282.074219 1355.59375 1282.074219 1379.753906 1294.382812 C 1393.707031 1301.363281 1405.230469 1311.367188 1416.15625 1321.835938 C 1434.390625 1312.160156 1447.753906 1293.726562 1461.644531 1274.304688 C 1478.101562 1251.332031 1495.019531 1227.632812 1521.878906 1216.640625 C 1526.816406 1214.53125 1532.015625 1213.148438 1537.019531 1211.570312 C 1544.0625 1209.464844 1550.648438 1207.554688 1556.242188 1204.328125 C 1570.59375 1195.507812 1577.769531 1177.074219 1584.222656 1157.523438 C 1587.316406 1147.914062 1595.742188 1122.566406 1617.664062 1119.011719 C 1634.515625 1116.445312 1648.339844 1128.625 1655.84375 1135.207031 L 1753.863281 1221.050781 L 1825.160156 1162.59375 C 1827.726562 1160.355469 1831.476562 1159.828125 1834.574219 1161.011719 C 1837.863281 1162.199219 1840.167969 1165.027344 1840.828125 1168.386719 C 1846.621094 1201.300781 1860.773438 1232.4375 1881.640625 1258.308594 L 1884.078125 1261.601562 C 1896.386719 1277.003906 1907.050781 1290.367188 1923.640625 1299.980469 L 2005.402344 1347.378906 C 2014.355469 1352.578125 2024.558594 1358.503906 2032.984375 1366.664062 C 2038.84375 1372.261719 2043.121094 1378.582031 2045.953125 1385.097656 C 2056.816406 1377.855469 2069.519531 1373.710938 2082.355469 1373.578125 C 2109.082031 1346.324219 2152.992188 1333.882812 2188.871094 1344.019531 C 2214.808594 1351.261719 2236.070312 1367.71875 2256.542969 1383.78125 C 2274.710938 1397.933594 2292.027344 1411.296875 2311.773438 1418.011719 L 2311.773438 1331.050781 C 2311.773438 1321.570312 2311.378906 1311.894531 2311.117188 1302.152344 C 2310.195312 1275.558594 2309.273438 1248.105469 2314.472656 1221.773438 Z M 2328.691406 846.871094 L 2366.148438 807.375 L 1983.613281 807.375 C 1958.332031 807.375 1932.921875 808.691406 1908.300781 809.808594 C 1877.890625 811.390625 1846.488281 812.96875 1815.152344 812.179688 C 1793.363281 811.652344 1771.703125 810.992188 1750.113281 810.203125 C 1707.324219 808.820312 1663.28125 807.375 1619.964844 807.375 L 1019.203125 807.375 C 1007.945312 807.375 996.359375 807.109375 984.96875 806.847656 C 949.09375 806.058594 912.160156 805.265625 878.191406 812.441406 C 850.609375 818.105469 829.609375 814.746094 805.121094 810.730469 C 800.710938 809.941406 796.039062 809.152344 791.101562 808.492188 C 767.53125 805.003906 744.03125 805.792969 719.082031 806.714844 C 708.285156 806.976562 697.421875 807.375 686.5625 807.375 L 681.757812 807.375 C 674.582031 807.375 660.886719 807.375 646.734375 807.375 C 658.648438 820.078125 670.300781 833.046875 681.625 846.148438 C 685.640625 846.148438 699.859375 846.148438 756.605469 846.148438 L 761.015625 846.148438 C 770.625 846.148438 780.238281 845.882812 789.785156 845.488281 C 812.625 844.699219 836.0625 843.910156 859.761719 847.398438 C 864.304688 848.054688 868.582031 848.847656 872.730469 849.503906 C 893.335938 852.863281 909.527344 855.429688 930.132812 851.152344 C 963.707031 844.171875 998.859375 844.960938 1032.695312 845.6875 C 1043.03125 845.882812 1053.300781 846.148438 1063.375 846.148438 L 1609.105469 846.148438 C 1648.867188 846.148438 1689.089844 847.398438 1727.929688 848.714844 C 1747.609375 849.308594 1767.359375 849.964844 1787.042969 850.492188 C 1814.757812 851.152344 1842.734375 849.769531 1869.859375 848.453125 C 1892.503906 847.265625 1915.9375 846.148438 1939.570312 846.148438 L 2324.675781 846.148438 C 2326.125 846.148438 2327.441406 846.476562 2328.691406 846.871094 Z M 2123.433594 2191.648438 L 2375.101562 2191.648438 C 2358.910156 2177.691406 2341.53125 2164.855469 2323.296875 2153.335938 L 2066.558594 2153.335938 C 2045.425781 2153.335938 2024.292969 2152.941406 2003.164062 2152.546875 C 1962.347656 2151.753906 1920.152344 2150.964844 1879.074219 2153.335938 C 1846.027344 2155.113281 1812.191406 2154.453125 1779.40625 2153.992188 C 1763.210938 2153.597656 1747.019531 2153.335938 1730.890625 2153.335938 L 1011.566406 2153.335938 C 990.566406 2153.335938 970.882812 2153.335938 950.210938 2156.824219 C 942.839844 2158.140625 935.597656 2158.601562 928.355469 2158.601562 C 916.308594 2158.601562 904.394531 2157.21875 892.875 2155.902344 C 881.289062 2154.585938 870.558594 2153.335938 859.628906 2153.335938 L 690.117188 2153.335938 C 687.945312 2153.335938 685.773438 2153.335938 683.535156 2153.203125 C 671.355469 2166.566406 658.519531 2179.273438 645.285156 2191.648438 C 658.914062 2191.648438 672.539062 2191.648438 680.964844 2191.648438 L 794.984375 2191.648438 C 808.609375 2191.648438 821.84375 2193.226562 834.613281 2194.675781 C 853.96875 2196.847656 872.203125 2198.957031 890.238281 2195.925781 C 915.125 2191.648438 939.085938 2191.648438 962.324219 2191.648438 L 1754.128906 2191.648438 C 1771.835938 2191.648438 1789.875 2192.042969 1807.910156 2192.304688 C 1843.394531 2192.964844 1880.0625 2193.625 1915.476562 2191.648438 C 1961.691406 2189.082031 2008.757812 2190.003906 2054.117188 2190.792969 C 2077.15625 2191.253906 2100.394531 2191.648438 2123.433594 2191.648438 Z M 2397.550781 1193.925781 C 2401.304688 1175.691406 2399.328125 1160.617188 2397.15625 1143.238281 C 2396.234375 1135.074219 2395.050781 1126.519531 2394.589844 1117.234375 C 2393.140625 1093.734375 2393.535156 1069.902344 2394.0625 1046.863281 C 2394.324219 1035.34375 2394.589844 1023.886719 2394.589844 1012.632812 L 2394.589844 807.375 L 2393.007812 807.375 L 2337.644531 865.832031 L 2337.644531 1057.332031 C 2337.644531 1067.863281 2337.382812 1078.328125 2337.121094 1088.996094 C 2336.789062 1109.46875 2336.394531 1130.535156 2337.515625 1150.808594 C 2338.039062 1158.839844 2338.960938 1166.082031 2339.882812 1172.929688 C 2341.925781 1190.175781 2344.03125 1206.371094 2339.882812 1226.84375 C 2335.210938 1250.210938 2336.132812 1276.214844 2337.054688 1301.230469 C 2337.25 1311.367188 2337.644531 1321.308594 2337.644531 1331.050781 L 2337.644531 1673.960938 C 2337.644531 1693.777344 2336.261719 1713.722656 2334.945312 1733.140625 C 2332.644531 1765.332031 2330.535156 1795.613281 2334.15625 1825.960938 C 2340.410156 1876.519531 2339.359375 1927.667969 2338.304688 1977.175781 C 2337.910156 1995.738281 2337.644531 2014.367188 2337.644531 2032.933594 L 2337.644531 2139.183594 C 2357.722656 2152.28125 2376.816406 2166.699219 2394.589844 2182.695312 L 2394.589844 2086.320312 C 2394.589844 2065.714844 2394.917969 2045.109375 2395.3125 2024.503906 C 2396.367188 1970.984375 2397.550781 1915.492188 2390.902344 1861.839844 C 2386.6875 1825.960938 2389.125 1789.691406 2391.5625 1754.535156 C 2393.007812 1733.667969 2394.589844 1712.207031 2394.589844 1691.339844 L 2394.589844 1313.804688 C 2394.589844 1303.46875 2394.195312 1292.804688 2393.800781 1282.074219 C 2392.878906 1252.78125 2391.824219 1222.5625 2397.550781 1193.925781 Z M 2390.835938 781.4375 L 2413.746094 757.210938 L 2003.03125 757.210938 C 1976.765625 757.210938 1950.171875 758.660156 1924.496094 759.910156 C 1893.03125 761.488281 1860.378906 763.203125 1827.859375 762.410156 C 1805.277344 761.753906 1782.632812 761.09375 1759.921875 760.304688 C 1715.617188 758.726562 1669.734375 757.210938 1624.640625 757.210938 L 999.714844 757.210938 C 987.933594 757.210938 976.148438 756.949219 964.101562 756.683594 C 926.777344 755.894531 888.066406 754.972656 852.257812 762.675781 C 824.277344 768.597656 802.621094 764.980469 777.605469 760.832031 C 772.996094 760.042969 768.058594 759.25 762.992188 758.527344 C 738.105469 754.773438 713.488281 755.632812 687.417969 756.421875 C 676.160156 756.816406 664.902344 757.210938 653.582031 757.210938 L 648.578125 757.210938 C 638.570312 757.210938 615.792969 757.210938 596.175781 757.210938 C 604.734375 765.242188 613.160156 773.273438 621.457031 781.4375 C 633.898438 781.4375 652.726562 781.4375 681.757812 781.4375 L 686.5625 781.4375 C 697.027344 781.4375 707.628906 781.042969 718.292969 780.777344 C 743.175781 779.921875 769.046875 779 794.984375 782.882812 C 799.921875 783.675781 804.726562 784.398438 809.269531 785.1875 C 832.046875 788.808594 850.082031 791.835938 872.859375 787.03125 C 909.660156 779.394531 948.300781 780.121094 985.496094 780.910156 C 996.753906 781.171875 1008.011719 781.4375 1019.203125 781.4375 L 1619.964844 781.4375 C 1663.675781 781.4375 1707.980469 782.882812 1750.835938 784.265625 C 1772.496094 785.058594 1794.152344 785.714844 1815.8125 786.242188 C 1846.222656 787.03125 1877.097656 785.453125 1907.050781 784.003906 C 1931.933594 782.753906 1957.675781 781.4375 1983.613281 781.4375 Z M 2148.449219 2241.546875 L 2423.421875 2241.546875 C 2416.578125 2233.253906 2409.597656 2225.222656 2402.355469 2217.585938 L 2123.433594 2217.585938 C 2100.132812 2217.585938 2076.957031 2217.191406 2053.722656 2216.664062 C 2008.757812 2215.941406 1962.21875 2215.019531 1916.992188 2217.585938 C 1880.585938 2219.558594 1843.394531 2218.902344 1807.382812 2218.242188 C 1789.480469 2217.980469 1771.703125 2217.585938 1754.128906 2217.585938 L 962.324219 2217.585938 C 939.085938 2217.585938 917.363281 2217.585938 894.519531 2221.46875 C 886.488281 2222.785156 878.589844 2223.3125 870.6875 2223.3125 C 857.457031 2223.3125 844.355469 2221.863281 831.652344 2220.417969 C 818.945312 2219.035156 807.03125 2217.585938 794.984375 2217.585938 L 616.648438 2217.585938 C 612.109375 2221.46875 607.367188 2225.222656 602.824219 2229.105469 C 599.074219 2233.382812 595.253906 2237.53125 591.371094 2241.546875 L 766.480469 2241.546875 C 780.371094 2241.546875 794.0625 2243.128906 807.292969 2244.707031 C 827.636719 2247.011719 846.988281 2249.316406 866.144531 2245.957031 C 891.820312 2241.546875 916.570312 2241.546875 940.535156 2241.546875 L 1764.199219 2241.546875 C 1782.765625 2241.546875 1801.394531 2241.8125 1820.222656 2242.207031 C 1857.152344 2242.863281 1895.332031 2243.652344 1932.460938 2241.414062 C 1980.386719 2238.714844 2029.230469 2239.769531 2076.433594 2240.691406 C 2100.394531 2241.019531 2124.488281 2241.546875 2148.449219 2241.546875 Z M 2437.445312 1174.375 C 2441.328125 1154.167969 2439.417969 1137.839844 2437.050781 1118.882812 C 2436.0625 1110.324219 2435.007812 1101.304688 2434.351562 1091.429688 C 2432.769531 1066.679688 2433.296875 1041.269531 2433.824219 1016.777344 C 2434.085938 1004.46875 2434.351562 992.289062 2434.351562 980.113281 L 2434.351562 763.792969 C 2432.507812 765.636719 2430.863281 767.480469 2429.019531 769.257812 L 2415.0625 784.203125 C 2418.289062 786.503906 2420.460938 790.125 2420.460938 794.40625 L 2420.460938 1012.632812 C 2420.460938 1024.152344 2420.195312 1035.671875 2419.933594 1047.390625 C 2419.40625 1069.902344 2419.078125 1093.273438 2420.460938 1115.65625 C 2420.988281 1124.34375 2422.039062 1132.375 2422.960938 1140.011719 C 2425.265625 1158.839844 2427.503906 1176.546875 2422.960938 1198.996094 C 2417.894531 1224.800781 2418.8125 1253.4375 2419.734375 1281.152344 C 2420.066406 1292.144531 2420.460938 1303.207031 2420.460938 1313.804688 L 2420.460938 1691.339844 C 2420.460938 1713.0625 2418.945312 1735.117188 2417.496094 1756.378906 C 2415.0625 1791.730469 2412.691406 1825.304688 2416.707031 1858.613281 C 2423.421875 1914.242188 2422.304688 1970.589844 2421.25 2025.03125 C 2420.855469 2045.503906 2420.460938 2065.980469 2420.460938 2086.320312 L 2420.460938 2204.617188 C 2420.460938 2205.671875 2420.066406 2206.589844 2419.800781 2207.644531 C 2424.738281 2212.78125 2429.675781 2218.113281 2434.351562 2223.707031 L 2434.351562 2125.027344 C 2434.351562 2103.171875 2434.746094 2081.121094 2435.140625 2059.265625 C 2436.257812 2001.925781 2437.3125 1942.746094 2430.597656 1885.210938 C 2426.1875 1847.355469 2428.753906 1808.847656 2431.257812 1771.519531 C 2432.769531 1749.402344 2434.351562 1726.296875 2434.351562 1703.914062 L 2434.351562 1301.363281 C 2434.351562 1290.238281 2433.957031 1278.847656 2433.558594 1267.261719 C 2432.507812 1236.453125 2431.519531 1204.460938 2437.445312 1174.375 Z M 2449.492188 721.730469 L 2026.664062 721.730469 C 1999.28125 721.730469 1971.566406 723.109375 1944.839844 724.558594 C 1911.726562 726.203125 1877.363281 728.046875 1843 727.125 C 1819.300781 726.535156 1795.601562 725.679688 1771.96875 724.953125 C 1725.625 723.375 1677.503906 721.730469 1630.5 721.730469 L 976.148438 721.730469 C 963.441406 721.730469 950.738281 721.464844 938.097656 721.070312 C 906.828125 720.410156 877.273438 719.621094 847.84375 723.242188 C 802.621094 728.839844 764.175781 728.707031 726.980469 722.847656 C 701.835938 718.964844 676.425781 719.886719 649.566406 720.9375 C 637.648438 721.332031 625.734375 721.730469 613.820312 721.730469 L 608.488281 721.730469 C 598.546875 721.730469 576.230469 721.730469 556.414062 721.730469 C 562.667969 726.996094 569.121094 732.328125 575.308594 737.792969 C 586.894531 737.792969 608.222656 737.792969 648.578125 737.792969 L 653.582031 737.792969 C 664.640625 737.792969 675.632812 737.394531 686.757812 737 C 712.566406 736.210938 739.292969 735.15625 765.953125 739.304688 C 771.152344 740.09375 776.089844 740.886719 780.894531 741.675781 C 804.859375 745.691406 823.882812 748.917969 848.242188 743.585938 C 886.222656 735.554688 925.984375 736.472656 964.628906 737.265625 C 976.410156 737.527344 988.0625 737.792969 999.714844 737.792969 L 1624.640625 737.792969 C 1670.128906 737.792969 1716.144531 739.304688 1760.578125 740.886719 C 1783.289062 741.675781 1805.804688 742.464844 1828.382812 742.992188 C 1860.113281 743.714844 1892.371094 742.070312 1923.507812 740.488281 C 1949.378906 739.171875 1976.238281 737.792969 2003.03125 737.792969 L 2432.507812 737.792969 C 2437.972656 732.328125 2443.699219 726.863281 2449.492188 721.730469 Z M 2457.390625 2276.832031 C 2454.691406 2273.410156 2452.125 2269.921875 2449.492188 2266.5625 C 2447.976562 2264.785156 2446.398438 2262.679688 2444.949219 2260.835938 C 2444.554688 2260.835938 2444.355469 2261.03125 2444.027344 2261.03125 L 2148.449219 2261.03125 C 2124.355469 2261.03125 2100.261719 2260.507812 2076.039062 2260.113281 C 2029.230469 2259.058594 1980.78125 2258.136719 1933.449219 2260.835938 C 1895.730469 2263.074219 1857.152344 2262.285156 1819.828125 2261.625 C 1801.128906 2261.230469 1782.632812 2261.03125 1764.199219 2261.03125 L 940.535156 2261.03125 C 917.363281 2261.03125 893.464844 2261.03125 869.503906 2265.179688 C 861.339844 2266.5625 853.308594 2267.089844 845.277344 2267.089844 C 831.652344 2267.089844 818.222656 2265.574219 805.121094 2263.996094 C 792.417969 2262.546875 779.316406 2261.03125 766.480469 2261.03125 L 570.699219 2261.03125 C 564.183594 2266.5625 557.46875 2271.894531 550.425781 2276.832031 L 731.984375 2276.832031 C 747.058594 2276.832031 761.675781 2278.476562 775.828125 2280.191406 C 796.5625 2282.625 815.984375 2284.996094 834.613281 2281.769531 C 862.261719 2276.832031 888.726562 2276.832031 914.070312 2276.832031 L 1776.511719 2276.832031 C 1795.996094 2276.832031 1815.679688 2277.226562 1835.230469 2277.621094 C 1873.875 2278.28125 1913.632812 2279.003906 1952.144531 2276.832031 C 2002.636719 2273.804688 2053.984375 2274.859375 2103.488281 2275.777344 C 2128.636719 2276.304688 2153.78125 2276.832031 2178.796875 2276.832031 Z M 2469.699219 2092.507812 C 2470.886719 2032.140625 2472.070312 1969.667969 2464.894531 1909.171875 C 2460.15625 1868.355469 2462.988281 1827.148438 2465.554688 1787.1875 C 2467.132812 1763.753906 2468.84375 1739.527344 2468.84375 1715.960938 L 2468.84375 730.484375 C 2463.511719 735.027344 2458.179688 739.699219 2453.113281 744.636719 C 2453.507812 745.558594 2453.769531 746.480469 2453.769531 747.46875 L 2453.769531 980.113281 C 2453.769531 992.421875 2453.507812 1004.730469 2453.242188 1017.175781 C 2452.78125 1041.269531 2452.257812 1066.28125 2453.769531 1090.246094 C 2454.296875 1099.726562 2455.351562 1108.28125 2456.402344 1116.578125 C 2458.707031 1136.261719 2461.078125 1154.957031 2456.46875 1177.996094 C 2451.070312 1206.105469 2451.992188 1236.847656 2452.980469 1266.605469 C 2453.375 1278.453125 2453.769531 1289.972656 2453.769531 1301.363281 L 2453.769531 1703.914062 C 2453.769531 1726.953125 2452.257812 1750.257812 2450.675781 1772.96875 C 2448.175781 1809.242188 2445.605469 1846.832031 2449.886719 1882.839844 C 2456.929688 1941.824219 2455.746094 2001.664062 2454.558594 2059.59375 C 2454.164062 2081.382812 2453.769531 2103.304688 2453.769531 2125.027344 L 2453.769531 2247.933594 C 2458.972656 2254.382812 2464.039062 2261.03125 2468.84375 2267.878906 L 2468.84375 2162.550781 C 2468.84375 2139.183594 2469.175781 2115.878906 2469.699219 2092.507812 Z M 2503.539062 1904.761719 C 2510.910156 1967.761719 2509.792969 2031.617188 2508.605469 2093.296875 C 2508.078125 2116.40625 2507.683594 2139.445312 2507.683594 2162.550781 L 2507.683594 2296.253906 C 2507.683594 2306.984375 2498.996094 2315.671875 2488.265625 2315.671875 L 2178.796875 2315.671875 C 2153.519531 2315.671875 2128.109375 2315.144531 2102.832031 2314.683594 C 2053.984375 2313.761719 2003.425781 2312.710938 1954.316406 2315.539062 C 1914.425781 2317.910156 1873.875 2317.121094 1834.574219 2316.460938 C 1815.152344 2316.066406 1795.863281 2315.671875 1776.511719 2315.671875 L 914.070312 2315.671875 C 889.1875 2315.671875 865.75 2315.671875 841.394531 2319.949219 C 832.308594 2321.53125 823.226562 2322.1875 814.402344 2322.1875 C 799.65625 2322.1875 785.308594 2320.476562 771.285156 2318.832031 C 757.660156 2317.253906 744.820312 2315.671875 731.984375 2315.671875 L 518.433594 2315.671875 C 507.703125 2315.671875 499.011719 2306.984375 499.011719 2296.253906 L 499.011719 1931.289062 C 499.011719 1877.046875 494.734375 1826.488281 491.113281 1788.375 C 488.609375 1762.960938 490.71875 1738.078125 492.757812 1713.984375 C 495.128906 1686.929688 497.167969 1661.253906 493.152344 1635.582031 C 488.875 1608.65625 492.101562 1581.535156 495.257812 1555.53125 C 497.167969 1539.074219 499.011719 1523.472656 499.011719 1508.464844 L 499.011719 1153.640625 C 499.011719 1147.515625 499.011719 1141.722656 499.144531 1135.867188 C 499.40625 1111.507812 499.671875 1088.46875 494.863281 1064.964844 C 490.191406 1042.320312 493.019531 1022.769531 495.917969 1003.808594 C 497.433594 992.816406 499.011719 982.285156 499.011719 971.289062 C 499.144531 939.558594 499.144531 907.832031 499.011719 875.902344 L 499.011719 828.242188 C 499.011719 827.058594 498.878906 822.644531 498.878906 816.0625 C 496.90625 685.191406 496.90625 685.191406 516.257812 682.953125 C 517.378906 682.824219 517.511719 682.824219 608.488281 682.824219 L 613.820312 682.824219 C 625.207031 682.824219 636.792969 682.429688 648.183594 682.03125 C 675.632812 681.046875 704.007812 680.058594 732.773438 684.535156 C 766.480469 689.667969 801.566406 689.667969 843.238281 684.667969 C 875.496094 680.714844 907.75 681.570312 938.953125 682.164062 C 951.394531 682.558594 963.839844 682.824219 976.148438 682.824219 L 1630.5 682.824219 C 1678.160156 682.824219 1726.480469 684.535156 1773.285156 686.046875 C 1796.851562 686.839844 1820.351562 687.628906 1843.921875 688.285156 C 1876.835938 689.144531 1910.410156 687.367188 1942.796875 685.652344 C 1969.984375 684.269531 1998.292969 682.824219 2026.664062 682.824219 L 2488.265625 682.824219 C 2498.996094 682.824219 2507.683594 691.511719 2507.683594 702.242188 L 2507.683594 1715.960938 C 2507.683594 1740.84375 2506.039062 1765.726562 2504.460938 1789.820312 C 2501.761719 1829.714844 2499.257812 1867.304688 2503.539062 1904.761719 " fill-opacity="1" fill-rule="nonzero"/></g></svg>