<svg xmlns="http://www.w3.org/2000/svg" xmlns:xlink="http://www.w3.org/1999/xlink" width="4000" zoomAndPan="magnify" viewBox="0 0 3000 2999.999989" height="4000" preserveAspectRatio="xMidYMid meet" version="1.0"><defs><clipPath id="e75d916bec"><path d="M 515.625 585 L 2484.375 585 L 2484.375 2553.75 L 515.625 2553.75 Z M 515.625 585 " clip-rule="nonzero"/></clipPath></defs><g clip-path="url(#e75d916bec)"><path fill="#2197bd" d="M 2484.378906 2254.402344 C 2484.378906 2419.617188 2350.4375 2553.558594 2185.210938 2553.558594 L 814.851562 2553.558594 C 649.625 2553.558594 515.703125 2419.617188 515.703125 2254.402344 L 515.703125 884.035156 C 515.703125 718.808594 649.628906 584.878906 814.851562 584.878906 L 2185.214844 584.878906 C 2350.441406 584.878906 2484.382812 718.808594 2484.382812 884.035156 L 2484.382812 2254.402344 Z M 2484.378906 2254.402344 " fill-opacity="1" fill-rule="nonzero"/></g><path fill="#ffffff" d="M 1294.15625 1287.25 C 1294.15625 1289.65625 1294.097656 1292.0625 1293.980469 1294.464844 C 1293.859375 1296.871094 1293.683594 1299.269531 1293.449219 1301.664062 C 1293.210938 1304.058594 1292.917969 1306.449219 1292.5625 1308.828125 C 1292.210938 1311.210938 1291.800781 1313.582031 1291.328125 1315.941406 C 1290.859375 1318.300781 1290.332031 1320.648438 1289.75 1322.984375 C 1289.164062 1325.320312 1288.523438 1327.636719 1287.824219 1329.941406 C 1287.125 1332.246094 1286.371094 1334.527344 1285.558594 1336.796875 C 1284.746094 1339.0625 1283.882812 1341.304688 1282.960938 1343.53125 C 1282.039062 1345.753906 1281.066406 1347.953125 1280.035156 1350.128906 C 1279.007812 1352.304688 1277.925781 1354.453125 1276.789062 1356.578125 C 1275.65625 1358.699219 1274.46875 1360.792969 1273.230469 1362.855469 C 1271.996094 1364.921875 1270.707031 1366.953125 1269.371094 1368.957031 C 1268.035156 1370.957031 1266.648438 1372.925781 1265.214844 1374.855469 C 1263.78125 1376.789062 1262.300781 1378.6875 1260.773438 1380.546875 C 1259.246094 1382.410156 1257.675781 1384.230469 1256.058594 1386.015625 C 1254.441406 1387.796875 1252.78125 1389.539062 1251.082031 1391.242188 C 1249.378906 1392.945312 1247.636719 1394.601562 1245.851562 1396.21875 C 1244.070312 1397.835938 1242.246094 1399.40625 1240.386719 1400.933594 C 1238.527344 1402.460938 1236.628906 1403.941406 1234.695312 1405.375 C 1232.761719 1406.808594 1230.796875 1408.195312 1228.796875 1409.53125 C 1226.792969 1410.867188 1224.761719 1412.15625 1222.695312 1413.394531 C 1220.632812 1414.628906 1218.539062 1415.816406 1216.417969 1416.949219 C 1214.292969 1418.085938 1212.144531 1419.167969 1209.96875 1420.195312 C 1207.792969 1421.226562 1205.59375 1422.199219 1203.371094 1423.121094 C 1201.144531 1424.042969 1198.902344 1424.910156 1196.632812 1425.71875 C 1194.367188 1426.53125 1192.082031 1427.285156 1189.78125 1427.984375 C 1187.476562 1428.683594 1185.15625 1429.324219 1182.824219 1429.910156 C 1180.488281 1430.492188 1178.140625 1431.019531 1175.78125 1431.492188 C 1173.417969 1431.960938 1171.050781 1432.371094 1168.667969 1432.722656 C 1166.289062 1433.078125 1163.898438 1433.371094 1161.503906 1433.609375 C 1159.109375 1433.84375 1156.710938 1434.019531 1154.304688 1434.140625 C 1151.902344 1434.257812 1149.496094 1434.316406 1147.089844 1434.316406 C 1144.683594 1434.316406 1142.277344 1434.257812 1139.875 1434.140625 C 1137.46875 1434.019531 1135.070312 1433.84375 1132.675781 1433.609375 C 1130.277344 1433.371094 1127.890625 1433.078125 1125.511719 1432.722656 C 1123.128906 1432.371094 1120.757812 1431.960938 1118.398438 1431.492188 C 1116.039062 1431.019531 1113.691406 1430.492188 1111.355469 1429.910156 C 1109.019531 1429.324219 1106.703125 1428.683594 1104.398438 1427.984375 C 1102.09375 1427.285156 1099.808594 1426.53125 1097.542969 1425.71875 C 1095.277344 1424.910156 1093.03125 1424.042969 1090.808594 1423.121094 C 1088.585938 1422.199219 1086.386719 1421.226562 1084.210938 1420.195312 C 1082.035156 1419.167969 1079.886719 1418.085938 1077.761719 1416.949219 C 1075.640625 1415.816406 1073.546875 1414.628906 1071.480469 1413.394531 C 1069.417969 1412.15625 1067.386719 1410.867188 1065.382812 1409.53125 C 1063.382812 1408.195312 1061.414062 1406.808594 1059.480469 1405.375 C 1057.546875 1403.941406 1055.652344 1402.460938 1053.792969 1400.933594 C 1051.929688 1399.40625 1050.109375 1397.835938 1048.324219 1396.21875 C 1046.542969 1394.601562 1044.800781 1392.941406 1043.097656 1391.242188 C 1041.394531 1389.539062 1039.738281 1387.796875 1038.121094 1386.011719 C 1036.503906 1384.230469 1034.933594 1382.410156 1033.40625 1380.546875 C 1031.878906 1378.6875 1030.398438 1376.789062 1028.964844 1374.855469 C 1027.53125 1372.925781 1026.144531 1370.957031 1024.808594 1368.957031 C 1023.472656 1366.953125 1022.183594 1364.921875 1020.945312 1362.855469 C 1019.707031 1360.792969 1018.523438 1358.699219 1017.386719 1356.578125 C 1016.253906 1354.453125 1015.171875 1352.304688 1014.144531 1350.128906 C 1013.113281 1347.953125 1012.140625 1345.753906 1011.21875 1343.53125 C 1010.296875 1341.304688 1009.429688 1339.0625 1008.621094 1336.792969 C 1007.808594 1334.527344 1007.054688 1332.242188 1006.355469 1329.941406 C 1005.65625 1327.636719 1005.015625 1325.320312 1004.429688 1322.984375 C 1003.84375 1320.648438 1003.316406 1318.300781 1002.847656 1315.941406 C 1002.378906 1313.582031 1001.96875 1311.210938 1001.613281 1308.828125 C 1001.261719 1306.449219 1000.96875 1304.058594 1000.730469 1301.664062 C 1000.496094 1299.269531 1000.316406 1296.871094 1000.199219 1294.464844 C 1000.082031 1292.0625 1000.023438 1289.65625 1000.023438 1287.25 C 1000.023438 1284.84375 1000.082031 1282.4375 1000.199219 1280.035156 C 1000.316406 1277.628906 1000.496094 1275.230469 1000.730469 1272.835938 C 1000.96875 1270.441406 1001.261719 1268.050781 1001.613281 1265.671875 C 1001.96875 1263.289062 1002.378906 1260.917969 1002.847656 1258.558594 C 1003.316406 1256.199219 1003.84375 1253.851562 1004.429688 1251.515625 C 1005.015625 1249.179688 1005.65625 1246.863281 1006.355469 1244.558594 C 1007.054688 1242.253906 1007.808594 1239.972656 1008.621094 1237.703125 C 1009.429688 1235.4375 1010.296875 1233.195312 1011.21875 1230.96875 C 1012.140625 1228.746094 1013.113281 1226.546875 1014.144531 1224.371094 C 1015.171875 1222.195312 1016.253906 1220.046875 1017.386719 1217.921875 C 1018.523438 1215.800781 1019.707031 1213.707031 1020.945312 1211.644531 C 1022.183594 1209.578125 1023.472656 1207.546875 1024.808594 1205.542969 C 1026.144531 1203.542969 1027.53125 1201.574219 1028.964844 1199.640625 C 1030.398438 1197.710938 1031.878906 1195.8125 1033.40625 1193.953125 C 1034.933594 1192.089844 1036.503906 1190.269531 1038.121094 1188.484375 C 1039.738281 1186.703125 1041.394531 1184.960938 1043.097656 1183.257812 C 1044.800781 1181.554688 1046.542969 1179.898438 1048.324219 1178.28125 C 1050.109375 1176.664062 1051.929688 1175.09375 1053.792969 1173.566406 C 1055.652344 1172.039062 1057.546875 1170.558594 1059.480469 1169.125 C 1061.414062 1167.691406 1063.382812 1166.304688 1065.382812 1164.96875 C 1067.386719 1163.632812 1069.417969 1162.34375 1071.480469 1161.105469 C 1073.546875 1159.871094 1075.640625 1158.683594 1077.761719 1157.550781 C 1079.886719 1156.414062 1082.035156 1155.332031 1084.210938 1154.304688 C 1086.386719 1153.273438 1088.585938 1152.300781 1090.808594 1151.378906 C 1093.03125 1150.457031 1095.277344 1149.589844 1097.542969 1148.78125 C 1099.808594 1147.96875 1102.09375 1147.214844 1104.398438 1146.515625 C 1106.703125 1145.816406 1109.019531 1145.175781 1111.355469 1144.589844 C 1113.691406 1144.007812 1116.039062 1143.480469 1118.398438 1143.007812 C 1120.757812 1142.539062 1123.128906 1142.128906 1125.511719 1141.773438 C 1127.890625 1141.421875 1130.277344 1141.128906 1132.675781 1140.890625 C 1135.070312 1140.65625 1137.46875 1140.480469 1139.875 1140.359375 C 1142.277344 1140.242188 1144.683594 1140.183594 1147.089844 1140.183594 C 1149.496094 1140.183594 1151.902344 1140.242188 1154.304688 1140.359375 C 1156.710938 1140.480469 1159.109375 1140.65625 1161.503906 1140.890625 C 1163.898438 1141.128906 1166.289062 1141.421875 1168.667969 1141.773438 C 1171.050781 1142.128906 1173.417969 1142.539062 1175.78125 1143.007812 C 1178.140625 1143.480469 1180.488281 1144.007812 1182.824219 1144.589844 C 1185.15625 1145.175781 1187.476562 1145.816406 1189.78125 1146.515625 C 1192.082031 1147.214844 1194.367188 1147.96875 1196.632812 1148.78125 C 1198.902344 1149.589844 1201.144531 1150.457031 1203.371094 1151.378906 C 1205.59375 1152.300781 1207.792969 1153.273438 1209.96875 1154.304688 C 1212.144531 1155.332031 1214.292969 1156.414062 1216.414062 1157.550781 C 1218.539062 1158.683594 1220.632812 1159.871094 1222.695312 1161.105469 C 1224.761719 1162.34375 1226.792969 1163.632812 1228.796875 1164.96875 C 1230.796875 1166.304688 1232.761719 1167.691406 1234.695312 1169.125 C 1236.628906 1170.558594 1238.527344 1172.039062 1240.386719 1173.566406 C 1242.246094 1175.09375 1244.070312 1176.664062 1245.851562 1178.28125 C 1247.636719 1179.898438 1249.378906 1181.554688 1251.082031 1183.257812 C 1252.78125 1184.960938 1254.441406 1186.703125 1256.058594 1188.484375 C 1257.675781 1190.269531 1259.246094 1192.089844 1260.773438 1193.953125 C 1262.300781 1195.8125 1263.78125 1197.710938 1265.214844 1199.640625 C 1266.648438 1201.574219 1268.035156 1203.542969 1269.371094 1205.542969 C 1270.707031 1207.546875 1271.996094 1209.578125 1273.230469 1211.644531 C 1274.46875 1213.707031 1275.65625 1215.800781 1276.789062 1217.921875 C 1277.925781 1220.046875 1279.007812 1222.195312 1280.035156 1224.371094 C 1281.066406 1226.546875 1282.039062 1228.746094 1282.960938 1230.96875 C 1283.882812 1233.195312 1284.746094 1235.4375 1285.558594 1237.703125 C 1286.371094 1239.972656 1287.125 1242.253906 1287.824219 1244.558594 C 1288.523438 1246.863281 1289.164062 1249.179688 1289.75 1251.515625 C 1290.332031 1253.851562 1290.859375 1256.199219 1291.328125 1258.558594 C 1291.800781 1260.917969 1292.210938 1263.289062 1292.5625 1265.671875 C 1292.917969 1268.050781 1293.210938 1270.441406 1293.449219 1272.835938 C 1293.683594 1275.230469 1293.859375 1277.628906 1293.980469 1280.035156 C 1294.097656 1282.4375 1294.15625 1284.84375 1294.15625 1287.25 Z M 1294.15625 1287.25 " fill-opacity="1" fill-rule="nonzero"/><path fill="#ffffff" d="M 1020.308594 1542.738281 L 1272.964844 1542.738281 L 1272.964844 2355.527344 L 1020.308594 2355.527344 Z M 1020.308594 1542.738281 " fill-opacity="1" fill-rule="nonzero"/><path fill="#ffffff" d="M 1431.867188 1542.738281 L 1672.347656 1542.738281 L 1672.347656 2355.527344 L 1431.867188 2355.527344 Z M 1431.867188 1542.738281 " fill-opacity="1" fill-rule="nonzero"/><path fill="#ffffff" d="M 1442.261719 1975.492188 L 1682.730469 1975.492188 L 1682.730469 2355.527344 L 1442.261719 2355.527344 Z M 1442.261719 1975.492188 " fill-opacity="1" fill-rule="nonzero"/><path fill="#ffffff" d="M 1682.730469 1975.492188 C 1682.730469 1975.492188 1678.972656 1870.070312 1706.777344 1815.257812 C 1706.777344 1815.257812 1734.582031 1747.753906 1821.976562 1747.347656 C 1821.976562 1747.347656 1924.46875 1729.453125 1953.863281 1831.152344 C 1953.863281 1831.152344 1964.988281 1887.554688 1964.988281 1911.402344 C 1964.988281 1935.246094 1965.785156 2355.53125 1965.785156 2355.53125 L 2217.636719 2355.53125 L 2217.636719 1889.953125 C 2217.636719 1889.953125 2235.917969 1626.960938 2078.066406 1554.917969 C 2078.066406 1554.917969 1818.523438 1438.394531 1677.652344 1652.386719 C 1677.652344 1652.386719 1646.925781 1673.5625 1642.679688 1614.242188 C 1638.4375 1554.917969 1602.429688 1705.347656 1601.367188 1708.535156 C 1600.304688 1711.710938 1642.679688 2008.328125 1642.679688 2008.328125 Z M 1682.730469 1975.492188 " fill-opacity="1" fill-rule="nonzero"/></svg>